<?xml version="1.0" encoding="utf-8"?>
<!-- Generator: Adobe Illustrator 14.0.0, SVG Export Plug-In . SVG Version: 6.00 Build 43363)  -->
<!DOCTYPE svg PUBLIC "-//W3C//DTD SVG 1.1//EN" "http://www.w3.org/Graphics/SVG/1.1/DTD/svg11.dtd">
<svg version="1.1" id="Layer_1" xmlns="http://www.w3.org/2000/svg" xmlns:xlink="http://www.w3.org/1999/xlink" x="0px" y="0px"
	 width="841.89px" height="595.279px" viewBox="0 0 841.89 595.279" enable-background="new 0 0 841.89 595.279"
	 xml:space="preserve">
<rect x="637.207" y="551.158" fill="#9B9DA0" width="179.473" height="20.029"/>
<rect x="637.557" y="461.094" fill="none" stroke="#000000" stroke-width="0.7" width="179.123" height="110.097"/>
<g>
	<path d="M646.74,467.198v8.114h-0.958v-8.114h-2.599v-0.854h6.149v0.854H646.74z"/>
	<path d="M656.226,475.313v-4.095h-4.259v4.095h-0.958v-8.972h0.958v4.02h4.259v-4.02h0.958v8.972H656.226z"/>
	<path d="M659.781,475.313v-8.972h5.565v0.854h-4.608v3.162h3.932v0.857h-3.932v3.234h4.608v0.857h-5.565V475.313z"/>
	<path d="M675.695,475.313v-4.095h-4.262v4.095h-0.958v-8.972h0.958v4.02h4.262v-4.02h0.958v8.972H675.695z"/>
	<path d="M679.245,475.313v-8.972h5.569v0.854h-4.611v3.162h3.932v0.857h-3.932v3.234h4.611v0.857h-5.569V475.313z"/>
	<path d="M691.959,475.313l-2.041-3.982h-2.155v3.982h-0.957v-8.972h3.439c0.387,0,0.744,0.057,1.071,0.17
		c0.324,0.11,0.606,0.274,0.845,0.491c0.231,0.214,0.417,0.478,0.548,0.785c0.13,0.313,0.195,0.659,0.195,1.049
		c0,0.651-0.184,1.188-0.542,1.604c-0.361,0.415-0.832,0.686-1.411,0.8l2.13,4.07L691.959,475.313L691.959,475.313z
		 M691.449,467.608c-0.332-0.271-0.766-0.409-1.292-0.409h-2.396v3.288h2.396c0.526,0,0.96-0.135,1.292-0.4
		c0.331-0.271,0.497-0.684,0.497-1.235S691.781,467.883,691.449,467.608z"/>
	<path d="M701.8,475.313v-6.817l-2.457,5.406h-0.816l-2.495-5.406v6.817h-0.958v-8.972h0.958l2.924,6.36l2.848-6.36h0.957v8.972
		H701.8z"/>
	<path d="M705.352,475.313v-8.972h0.958v8.972H705.352z"/>
	<path d="M711.539,467.198v8.114h-0.958v-8.114h-2.595v-0.854h6.146v0.854H711.539z"/>
	<path d="M724.164,475.313v-4.095h-4.259v4.095h-0.958v-8.972h0.958v4.02h4.259v-4.02h0.957v8.972H724.164z"/>
	<path d="M733.64,472.08c-0.009,0.357-0.04,0.679-0.095,0.958c-0.055,0.281-0.139,0.535-0.252,0.765
		c-0.113,0.228-0.275,0.443-0.485,0.652c-0.302,0.306-0.646,0.533-1.029,0.693c-0.391,0.159-0.81,0.239-1.264,0.239
		c-0.904,0-1.672-0.313-2.293-0.936c-0.211-0.209-0.372-0.428-0.482-0.652c-0.113-0.229-0.197-0.48-0.252-0.765
		c-0.058-0.279-0.087-0.601-0.098-0.958c-0.008-0.354-0.013-0.771-0.013-1.254c0-0.479,0.005-0.896,0.013-1.254
		c0.01-0.354,0.04-0.676,0.098-0.957c0.055-0.28,0.139-0.535,0.252-0.763c0.11-0.229,0.271-0.445,0.482-0.654
		c0.621-0.622,1.389-0.933,2.293-0.933c0.907,0,1.673,0.311,2.294,0.933c0.211,0.209,0.371,0.431,0.484,0.654
		c0.113,0.228,0.197,0.479,0.252,0.763s0.086,0.604,0.095,0.957c0.012,0.357,0.016,0.775,0.016,1.254
		C733.655,471.307,733.651,471.725,733.64,472.08z M732.675,469.637c-0.012-0.323-0.039-0.602-0.081-0.825
		c-0.042-0.228-0.104-0.422-0.188-0.586s-0.197-0.317-0.341-0.46c-0.192-0.202-0.428-0.359-0.698-0.473
		c-0.273-0.114-0.56-0.173-0.854-0.173s-0.577,0.06-0.851,0.173c-0.273,0.11-0.506,0.271-0.699,0.473
		c-0.143,0.143-0.257,0.296-0.34,0.46c-0.084,0.164-0.146,0.358-0.189,0.586c-0.042,0.227-0.066,0.502-0.082,0.825
		c-0.013,0.324-0.019,0.721-0.019,1.188c0,0.474,0.006,0.867,0.019,1.191c0.016,0.323,0.04,0.599,0.082,0.824
		c0.042,0.228,0.105,0.423,0.189,0.586c0.083,0.164,0.197,0.314,0.34,0.46c0.193,0.202,0.427,0.356,0.699,0.473
		c0.271,0.114,0.557,0.17,0.851,0.17s0.577-0.057,0.854-0.17c0.271-0.113,0.506-0.271,0.698-0.473
		c0.144-0.146,0.257-0.296,0.341-0.46c0.084-0.163,0.146-0.358,0.188-0.586c0.042-0.229,0.069-0.501,0.081-0.824
		c0.017-0.324,0.021-0.721,0.021-1.191C732.697,470.357,732.688,469.963,732.675,469.637z"/>
	<path d="M741.811,473.58c-0.152,0.374-0.374,0.695-0.652,0.967c-0.281,0.269-0.613,0.477-0.995,0.623
		c-0.383,0.146-0.8,0.221-1.254,0.221c-0.453,0-0.872-0.073-1.254-0.221c-0.385-0.146-0.712-0.354-0.989-0.623
		c-0.276-0.271-0.493-0.593-0.648-0.967c-0.152-0.374-0.23-0.78-0.23-1.229v-6.01h0.958v5.935c0,0.345,0.051,0.655,0.148,0.934
		c0.104,0.275,0.246,0.515,0.438,0.704c0.188,0.193,0.418,0.348,0.687,0.454c0.271,0.108,0.567,0.163,0.896,0.163
		s0.626-0.055,0.895-0.163c0.271-0.106,0.498-0.261,0.688-0.454c0.188-0.189,0.335-0.429,0.438-0.704
		c0.104-0.275,0.157-0.589,0.157-0.934v-5.935h0.958v6.01C742.044,472.8,741.966,473.206,741.811,473.58z"/>
	<path d="M749.698,473.907c-0.147,0.315-0.357,0.582-0.63,0.8c-0.273,0.222-0.604,0.39-0.982,0.508
		c-0.383,0.113-0.805,0.176-1.267,0.176c-0.673,0-1.247-0.092-1.729-0.277c-0.479-0.185-0.929-0.484-1.348-0.907l0.654-0.651
		c0.367,0.369,0.741,0.625,1.119,0.768c0.379,0.146,0.818,0.214,1.322,0.214c0.656,0,1.173-0.145,1.551-0.435
		c0.379-0.29,0.566-0.699,0.566-1.229c0-0.231-0.035-0.446-0.107-0.643c-0.067-0.192-0.178-0.354-0.318-0.479
		c-0.146-0.126-0.292-0.216-0.446-0.271c-0.156-0.054-0.396-0.106-0.725-0.157l-1.047-0.164c-0.716-0.116-1.267-0.344-1.649-0.68
		c-0.454-0.403-0.681-0.962-0.681-1.676c0-0.378,0.064-0.728,0.198-1.039c0.138-0.315,0.325-0.582,0.573-0.802
		s0.549-0.391,0.901-0.512c0.353-0.122,0.751-0.183,1.195-0.183c0.569,0,1.063,0.078,1.476,0.229
		c0.411,0.155,0.811,0.406,1.197,0.75l-0.618,0.617c-0.276-0.252-0.575-0.439-0.896-0.573c-0.317-0.13-0.719-0.192-1.194-0.192
		c-0.604,0-1.071,0.148-1.398,0.454c-0.328,0.302-0.491,0.705-0.491,1.209c0,0.454,0.134,0.799,0.403,1.033
		c0.142,0.115,0.321,0.219,0.535,0.303s0.438,0.146,0.674,0.188l0.981,0.15c0.209,0.034,0.396,0.069,0.563,0.104
		c0.165,0.038,0.309,0.082,0.435,0.135c0.126,0.051,0.241,0.104,0.35,0.171c0.104,0.063,0.203,0.137,0.296,0.22
		c0.504,0.429,0.756,1.021,0.756,1.776C749.919,473.238,749.845,473.594,749.698,473.907z"/>
	<path d="M751.922,475.313v-8.972h5.569v0.854h-4.611v3.162h3.931v0.857h-3.931v3.234h4.611v0.857h-5.569V475.313z"/>
	<path d="M764.667,473.907c-0.147,0.315-0.357,0.582-0.63,0.8c-0.273,0.222-0.604,0.39-0.983,0.508
		c-0.382,0.113-0.804,0.176-1.266,0.176c-0.673,0-1.247-0.092-1.729-0.277c-0.479-0.185-0.929-0.484-1.349-0.907l0.656-0.651
		c0.369,0.369,0.743,0.625,1.121,0.768c0.378,0.146,0.815,0.214,1.319,0.214c0.656,0,1.176-0.145,1.554-0.435
		s0.563-0.699,0.563-1.229c0-0.231-0.035-0.446-0.104-0.643c-0.071-0.192-0.181-0.354-0.321-0.479s-0.292-0.216-0.447-0.271
		c-0.152-0.054-0.396-0.106-0.725-0.157l-1.046-0.164c-0.713-0.116-1.267-0.344-1.649-0.68c-0.454-0.403-0.682-0.962-0.682-1.676
		c0-0.378,0.066-0.728,0.202-1.039c0.135-0.315,0.323-0.582,0.571-0.802c0.247-0.22,0.551-0.391,0.9-0.512
		c0.354-0.122,0.751-0.183,1.197-0.183c0.568,0,1.062,0.078,1.474,0.229c0.411,0.155,0.813,0.406,1.196,0.75l-0.617,0.617
		c-0.275-0.252-0.575-0.439-0.894-0.573c-0.32-0.13-0.722-0.192-1.197-0.192c-0.604,0-1.071,0.148-1.398,0.454
		c-0.327,0.302-0.488,0.705-0.488,1.209c0,0.454,0.134,0.799,0.4,1.033c0.145,0.115,0.321,0.219,0.535,0.303
		s0.438,0.146,0.674,0.188l0.982,0.15c0.21,0.034,0.396,0.069,0.561,0.104c0.165,0.038,0.313,0.082,0.438,0.135
		c0.125,0.051,0.238,0.104,0.347,0.171c0.104,0.063,0.203,0.137,0.296,0.22c0.504,0.429,0.756,1.021,0.756,1.776
		C764.888,473.238,764.813,473.594,764.667,473.907z"/>
</g>
<line fill="none" stroke="#000000" stroke-width="0.698" x1="637.803" y1="481.741" x2="816.89" y2="481.741"/>
<line fill="none" stroke="#000000" stroke-width="0.6982" x1="637.568" y1="500.408" x2="816.772" y2="500.408"/>
<line fill="none" stroke="#000000" stroke-width="0.6982" x1="637.568" y1="516.908" x2="816.772" y2="516.908"/>
<line fill="none" stroke="#000000" stroke-width="0.6982" x1="637.615" y1="551.158" x2="816.818" y2="551.158"/>
<g>
	<path d="M770.563,510.684c-0.087,0.165-0.21,0.306-0.365,0.423c-0.159,0.117-0.352,0.206-0.567,0.266
		c-0.218,0.063-0.464,0.093-0.731,0.093c-0.38,0-0.716-0.051-1.01-0.146s-0.563-0.261-0.811-0.495l0.433-0.432
		c0.174,0.186,0.378,0.314,0.611,0.396c0.234,0.078,0.489,0.117,0.766,0.117c0.365,0,0.653-0.063,0.863-0.19
		c0.21-0.132,0.315-0.325,0.315-0.593c0-0.188-0.062-0.342-0.179-0.447c-0.116-0.107-0.305-0.177-0.563-0.197l-0.729-0.063
		c-0.433-0.034-0.761-0.148-0.982-0.347c-0.229-0.194-0.338-0.476-0.338-0.841c0-0.204,0.041-0.386,0.119-0.545
		c0.08-0.159,0.193-0.294,0.34-0.405c0.145-0.109,0.313-0.196,0.518-0.256c0.201-0.063,0.419-0.091,0.652-0.091
		c0.315,0,0.61,0.039,0.887,0.117c0.271,0.075,0.509,0.195,0.706,0.357l-0.423,0.423c-0.156-0.119-0.334-0.208-0.535-0.266
		c-0.201-0.057-0.416-0.085-0.646-0.085c-0.322,0-0.568,0.063-0.736,0.193c-0.168,0.129-0.252,0.308-0.252,0.532
		c0,0.192,0.059,0.345,0.176,0.45c0.117,0.107,0.316,0.174,0.599,0.198l0.711,0.063c0.191,0.021,0.369,0.054,0.531,0.103
		c0.161,0.048,0.3,0.12,0.413,0.216c0.114,0.096,0.203,0.216,0.269,0.359c0.063,0.145,0.095,0.315,0.095,0.521
		C770.696,510.327,770.652,510.519,770.563,510.684z"/>
	<path d="M774.469,511.318c-0.219,0.096-0.479,0.146-0.787,0.146c-0.279,0-0.542-0.048-0.775-0.143
		c-0.237-0.093-0.444-0.23-0.621-0.423c-0.178-0.188-0.315-0.426-0.414-0.711c-0.1-0.285-0.148-0.616-0.148-0.994
		s0.051-0.708,0.148-0.99c0.099-0.279,0.236-0.518,0.414-0.706c0.177-0.188,0.384-0.329,0.621-0.428
		c0.233-0.096,0.496-0.145,0.775-0.145c0.309,0,0.568,0.049,0.787,0.145s0.442,0.27,0.671,0.513l-0.438,0.414
		c-0.168-0.186-0.327-0.313-0.479-0.387c-0.147-0.072-0.33-0.105-0.54-0.105c-0.216,0-0.408,0.042-0.585,0.126
		c-0.175,0.084-0.318,0.21-0.438,0.378c-0.104,0.145-0.178,0.308-0.223,0.488c-0.046,0.186-0.065,0.415-0.065,0.697
		s0.021,0.518,0.065,0.697c0.045,0.184,0.118,0.347,0.223,0.49c0.12,0.168,0.267,0.294,0.438,0.378
		c0.175,0.085,0.369,0.126,0.585,0.126c0.211,0,0.393-0.037,0.54-0.112c0.149-0.074,0.312-0.205,0.479-0.392l0.438,0.424
		C774.911,511.052,774.688,511.223,774.469,511.318z"/>
	<path d="M778.779,511.407v-0.423c-0.184,0.18-0.365,0.305-0.557,0.373c-0.188,0.069-0.431,0.104-0.725,0.104
		c-0.306,0-0.557-0.031-0.752-0.097c-0.194-0.063-0.361-0.167-0.499-0.311c-0.108-0.108-0.19-0.242-0.247-0.401
		c-0.058-0.158-0.086-0.325-0.086-0.499c0-0.39,0.131-0.7,0.392-0.932c0.264-0.23,0.644-0.347,1.142-0.347h1.332v-0.426
		c0-0.321-0.087-0.563-0.265-0.729c-0.174-0.162-0.465-0.243-0.873-0.243c-0.287,0-0.513,0.037-0.675,0.112
		c-0.162,0.073-0.309,0.206-0.438,0.392l-0.441-0.405c0.198-0.258,0.419-0.432,0.661-0.521c0.243-0.09,0.545-0.136,0.905-0.136
		c0.6,0,1.045,0.125,1.336,0.374s0.437,0.613,0.437,1.103v3.006h-0.646L778.779,511.407L778.779,511.407z M778.779,509.365h-1.242
		c-0.66,0-0.99,0.261-0.99,0.783c0,0.258,0.081,0.448,0.243,0.571s0.42,0.185,0.771,0.185c0.191,0,0.37-0.015,0.535-0.045
		s0.316-0.114,0.454-0.252c0.15-0.145,0.229-0.399,0.229-0.766V509.365L778.779,509.365z"/>
	<path d="M782.108,511.407c-0.393,0-0.678-0.109-0.855-0.338c-0.18-0.225-0.27-0.505-0.27-0.841v-5.228h0.646v5.199
		c0,0.219,0.041,0.378,0.126,0.486c0.084,0.107,0.239,0.162,0.468,0.162h0.354v0.558L782.108,511.407L782.108,511.407z"/>
	<path d="M783.851,509.365c0,0.483,0.111,0.857,0.333,1.123c0.225,0.269,0.549,0.397,0.975,0.397c0.259,0,0.473-0.04,0.644-0.121
		c0.172-0.081,0.345-0.208,0.521-0.383l0.438,0.388c-0.112,0.114-0.227,0.214-0.338,0.3c-0.108,0.085-0.229,0.157-0.354,0.215
		c-0.126,0.061-0.269,0.104-0.418,0.132c-0.153,0.031-0.323,0.049-0.512,0.049c-0.294,0-0.56-0.048-0.797-0.138
		c-0.234-0.09-0.438-0.228-0.604-0.414c-0.168-0.186-0.298-0.421-0.395-0.706c-0.093-0.282-0.139-0.622-0.139-1.013
		c0-0.72,0.161-1.278,0.484-1.674c0.322-0.396,0.77-0.595,1.331-0.595c0.575,0,1.022,0.189,1.343,0.573
		c0.315,0.388,0.478,0.906,0.478,1.566v0.297L783.851,509.365L783.851,509.365z M786.173,508.646
		c-0.006-0.066-0.014-0.126-0.021-0.181c-0.012-0.057-0.021-0.106-0.036-0.157c-0.018-0.051-0.034-0.106-0.062-0.166
		c-0.084-0.204-0.219-0.366-0.402-0.486c-0.188-0.12-0.396-0.18-0.631-0.18c-0.232,0-0.443,0.06-0.632,0.18
		c-0.186,0.12-0.318,0.282-0.402,0.486c-0.05,0.12-0.081,0.228-0.102,0.323c-0.018,0.097-0.028,0.231-0.036,0.414h2.343
		C786.185,508.788,786.179,508.713,786.173,508.646z"/>
	<path d="M791.969,511.407v-5.688l-1.197,1.054v-0.738l1.197-1.033h0.647v6.406L791.969,511.407L791.969,511.407z"/>
	<path d="M794.986,512.073h-0.642l2.565-7.737h0.639L794.986,512.073z"/>
	<path d="M801.615,510.215c-0.06,0.292-0.199,0.552-0.431,0.777c-0.146,0.15-0.325,0.271-0.532,0.354s-0.454,0.127-0.742,0.127
		c-0.282,0-0.533-0.043-0.752-0.127c-0.222-0.083-0.397-0.194-0.535-0.333c-0.138-0.146-0.243-0.312-0.315-0.494
		c-0.068-0.188-0.113-0.396-0.135-0.621h0.648c0.042,0.323,0.146,0.571,0.316,0.742s0.431,0.257,0.771,0.257
		c0.33,0,0.594-0.1,0.792-0.297c0.084-0.084,0.146-0.178,0.198-0.279c0.048-0.103,0.08-0.21,0.104-0.324
		c0.021-0.111,0.034-0.229,0.04-0.351s0.009-0.237,0.009-0.352c0-0.198-0.014-0.393-0.04-0.576c-0.024-0.188-0.078-0.354-0.15-0.494
		c-0.075-0.146-0.186-0.262-0.324-0.354c-0.144-0.09-0.328-0.135-0.563-0.135c-0.279,0-0.513,0.06-0.689,0.171
		c-0.184,0.114-0.307,0.27-0.369,0.459h-0.585v-3.363h3.24v0.573h-2.655v2.025c0.126-0.139,0.286-0.246,0.479-0.324
		c0.194-0.078,0.418-0.117,0.67-0.117c0.24,0,0.453,0.036,0.643,0.108c0.186,0.072,0.342,0.171,0.468,0.298
		c0.114,0.12,0.207,0.248,0.279,0.383c0.068,0.138,0.126,0.278,0.162,0.432c0.032,0.147,0.06,0.302,0.068,0.452
		c0.016,0.153,0.021,0.309,0.021,0.456C801.698,509.613,801.67,509.924,801.615,510.215z"/>
	<path d="M806.207,510.425c-0.09,0.219-0.213,0.402-0.369,0.558c-0.155,0.153-0.34,0.271-0.553,0.355
		c-0.214,0.084-0.446,0.126-0.698,0.126s-0.484-0.042-0.697-0.126s-0.396-0.202-0.554-0.355c-0.155-0.152-0.278-0.339-0.369-0.558
		c-0.09-0.222-0.135-0.461-0.135-0.728v-2.985c0-0.267,0.045-0.508,0.135-0.728c0.091-0.219,0.214-0.404,0.369-0.558
		c0.156-0.153,0.341-0.271,0.554-0.355s0.445-0.126,0.697-0.126s0.484,0.042,0.698,0.126c0.213,0.084,0.396,0.202,0.553,0.355
		c0.156,0.15,0.279,0.339,0.369,0.558c0.09,0.22,0.135,0.461,0.135,0.728v2.985C806.342,509.964,806.297,510.203,806.207,510.425z
		 M805.697,506.745c0-0.354-0.098-0.646-0.283-0.877c-0.189-0.229-0.464-0.347-0.824-0.347c-0.358,0-0.634,0.115-0.823,0.347
		c-0.188,0.23-0.281,0.523-0.281,0.877v2.916c0,0.354,0.096,0.646,0.281,0.878c0.189,0.23,0.465,0.349,0.823,0.349
		c0.36,0,0.635-0.115,0.824-0.349c0.188-0.229,0.283-0.521,0.283-0.878V506.745z"/>
</g>
<rect x="646.607" y="556.141" fill="none" width="162" height="11.666"/>
<g enable-background="new    ">
	<path fill="#FFFFFF" d="M688.773,564.685v-3.648c0-0.52-0.128-0.909-0.384-1.17c-0.257-0.26-0.608-0.39-1.056-0.39
		c-0.449,0-0.807,0.132-1.074,0.396c-0.269,0.264-0.402,0.651-0.402,1.163v3.648h-0.863v-8.544h0.863v3.288
		c0.424-0.48,0.977-0.72,1.656-0.72c0.672,0,1.193,0.195,1.566,0.588c0.371,0.392,0.558,0.924,0.558,1.596v3.792H688.773z"/>
	<path fill="#FFFFFF" d="M692.277,561.962c0,0.644,0.148,1.143,0.444,1.497c0.296,0.354,0.728,0.53,1.296,0.53
		c0.344,0,0.631-0.054,0.857-0.162c0.229-0.107,0.459-0.277,0.691-0.51l0.588,0.517c-0.152,0.152-0.303,0.286-0.451,0.399
		c-0.147,0.114-0.305,0.209-0.474,0.286c-0.168,0.078-0.354,0.137-0.558,0.177c-0.204,0.041-0.43,0.062-0.678,0.062
		c-0.393,0-0.746-0.061-1.063-0.181c-0.316-0.119-0.586-0.304-0.811-0.552c-0.224-0.248-0.397-0.562-0.521-0.941
		s-0.186-0.83-0.186-1.351c0-0.96,0.216-1.704,0.647-2.231c0.433-0.528,1.024-0.792,1.776-0.792c0.768,0,1.363,0.256,1.787,0.768
		c0.425,0.512,0.637,1.208,0.637,2.088v0.396H692.277z M695.372,561.002c-0.008-0.088-0.018-0.168-0.029-0.24
		s-0.028-0.143-0.048-0.21c-0.021-0.068-0.046-0.143-0.078-0.223c-0.112-0.271-0.292-0.487-0.54-0.647s-0.527-0.24-0.84-0.24
		s-0.592,0.08-0.84,0.24s-0.428,0.376-0.541,0.647c-0.063,0.16-0.107,0.305-0.131,0.433c-0.024,0.128-0.041,0.312-0.049,0.552h3.121
		C695.389,561.193,695.38,561.09,695.372,561.002z"/>
	<path fill="#FFFFFF" d="M701.397,559.909c-0.16-0.159-0.312-0.271-0.456-0.336c-0.145-0.063-0.332-0.096-0.564-0.096
		c-0.215,0-0.412,0.04-0.588,0.12s-0.323,0.191-0.443,0.336c-0.12,0.144-0.215,0.312-0.282,0.504s-0.103,0.4-0.103,0.624v3.624
		h-0.863v-5.904h0.863v0.721c0.16-0.248,0.391-0.442,0.69-0.582c0.3-0.141,0.622-0.21,0.966-0.21c0.28,0,0.534,0.04,0.762,0.119
		c0.229,0.08,0.447,0.225,0.654,0.433L701.397,559.909z"/>
	<path fill="#FFFFFF" d="M710.733,564.685v-3.636c0-0.528-0.13-0.922-0.39-1.183c-0.26-0.26-0.614-0.39-1.063-0.39
		c-0.432,0-0.786,0.128-1.063,0.384c-0.275,0.256-0.414,0.62-0.414,1.092v3.732h-0.863v-3.636c0-0.528-0.131-0.922-0.391-1.183
		c-0.26-0.26-0.613-0.39-1.062-0.39s-0.806,0.132-1.073,0.396c-0.27,0.264-0.402,0.655-0.402,1.176v3.636h-0.864v-5.904h0.864v0.648
		c0.207-0.24,0.453-0.42,0.738-0.54c0.283-0.12,0.594-0.18,0.93-0.18c0.408,0,0.766,0.082,1.074,0.245
		c0.307,0.164,0.553,0.41,0.737,0.738c0.464-0.655,1.112-0.983,1.944-0.983c0.32,0,0.607,0.048,0.863,0.144s0.477,0.232,0.66,0.408
		c0.424,0.408,0.637,0.956,0.637,1.644v3.78H710.733z"/>
	<path fill="#FFFFFF" d="M713.649,557.101v-0.972h0.972v0.972H713.649z M713.697,564.685v-5.904h0.863v5.904H713.697z"/>
	<path fill="#FFFFFF" d="M718.388,564.685c-0.256,0-0.478-0.042-0.666-0.126c-0.188-0.084-0.344-0.198-0.467-0.342
		c-0.125-0.145-0.219-0.313-0.283-0.504c-0.063-0.192-0.096-0.396-0.096-0.612v-3.624h-0.744v-0.66h0.744v-1.848h0.864v1.848h1.261
		v0.66h-1.261v3.6c0,0.272,0.063,0.484,0.192,0.637c0.127,0.151,0.332,0.228,0.611,0.228h0.457v0.744H718.388z"/>
	<path fill="#FFFFFF" d="M724.496,564.685v-3.648c0-0.52-0.128-0.909-0.384-1.17c-0.256-0.26-0.607-0.39-1.057-0.39
		c-0.447,0-0.806,0.132-1.073,0.396c-0.269,0.264-0.402,0.651-0.402,1.163v3.648h-0.864v-8.544h0.864v3.288
		c0.425-0.48,0.976-0.72,1.656-0.72c0.672,0,1.194,0.195,1.565,0.588c0.373,0.392,0.559,0.924,0.559,1.596v3.792H724.496z"/>
	<path fill="#FFFFFF" d="M731.834,563.023c-0.093,0.404-0.286,0.758-0.582,1.063c-0.208,0.208-0.452,0.372-0.731,0.491
		c-0.281,0.12-0.601,0.181-0.961,0.181c-0.359,0-0.68-0.061-0.959-0.181c-0.281-0.119-0.525-0.283-0.732-0.491
		c-0.152-0.152-0.274-0.318-0.366-0.498c-0.093-0.181-0.164-0.368-0.216-0.564c-0.053-0.196-0.088-0.402-0.108-0.618
		s-0.03-0.439-0.03-0.672c0-0.224,0.01-0.445,0.03-0.666c0.021-0.22,0.056-0.428,0.108-0.624c0.052-0.195,0.123-0.384,0.216-0.563
		c0.092-0.181,0.214-0.347,0.366-0.498c0.207-0.208,0.451-0.372,0.732-0.492c0.279-0.12,0.6-0.18,0.959-0.18
		c0.36,0,0.68,0.06,0.961,0.18c0.279,0.12,0.523,0.284,0.731,0.492c0.296,0.304,0.489,0.658,0.582,1.062
		c0.092,0.404,0.138,0.834,0.138,1.29S731.926,562.62,731.834,563.023z M731.096,561.229c-0.008-0.168-0.028-0.332-0.06-0.492
		c-0.032-0.16-0.08-0.31-0.145-0.45c-0.064-0.14-0.148-0.266-0.252-0.378c-0.287-0.288-0.648-0.432-1.08-0.432
		c-0.424,0-0.779,0.144-1.068,0.432c-0.111,0.112-0.197,0.238-0.258,0.378c-0.06,0.141-0.107,0.29-0.144,0.45
		s-0.058,0.324-0.065,0.492c-0.009,0.168-0.013,0.336-0.013,0.504s0.004,0.336,0.013,0.504c0.008,0.168,0.029,0.332,0.065,0.492
		s0.084,0.313,0.144,0.456c0.061,0.144,0.146,0.269,0.258,0.372c0.289,0.288,0.645,0.432,1.068,0.432
		c0.432,0,0.793-0.144,1.08-0.432c0.104-0.104,0.188-0.229,0.252-0.372s0.112-0.296,0.145-0.456c0.031-0.16,0.052-0.324,0.06-0.492
		s0.013-0.336,0.013-0.504S731.104,561.397,731.096,561.229z"/>
	<path fill="#FFFFFF" d="M737.54,564.685v-0.66c-0.207,0.24-0.453,0.422-0.735,0.546c-0.283,0.124-0.593,0.187-0.927,0.187
		c-0.646,0-1.152-0.185-1.52-0.553c-0.207-0.207-0.359-0.449-0.455-0.726s-0.143-0.586-0.143-0.93v-3.769h0.863v3.637
		c0,0.527,0.127,0.922,0.383,1.182c0.255,0.26,0.605,0.39,1.051,0.39c0.447,0,0.803-0.132,1.07-0.396
		c0.267-0.265,0.4-0.656,0.4-1.176v-3.637h0.876v5.904H737.54z"/>
	<path fill="#FFFFFF" d="M744.65,563.719c-0.115,0.22-0.279,0.408-0.492,0.563c-0.211,0.156-0.463,0.274-0.756,0.354
		c-0.291,0.08-0.617,0.12-0.978,0.12c-0.504,0-0.952-0.064-1.344-0.192s-0.753-0.348-1.08-0.66l0.575-0.576
		c0.232,0.248,0.505,0.425,0.816,0.528c0.313,0.104,0.652,0.156,1.021,0.156c0.487,0,0.872-0.086,1.151-0.258
		c0.28-0.172,0.42-0.435,0.42-0.786c0-0.256-0.078-0.456-0.233-0.601c-0.156-0.144-0.406-0.231-0.75-0.264l-0.972-0.084
		c-0.576-0.048-1.015-0.202-1.314-0.462s-0.45-0.634-0.45-1.122c0-0.271,0.054-0.514,0.162-0.726s0.259-0.393,0.45-0.54
		c0.191-0.148,0.422-0.263,0.689-0.343c0.269-0.079,0.559-0.119,0.871-0.119c0.424,0,0.817,0.052,1.182,0.155
		c0.363,0.104,0.678,0.265,0.941,0.48l-0.563,0.563c-0.208-0.159-0.446-0.277-0.714-0.354c-0.269-0.076-0.555-0.114-0.858-0.114
		c-0.433,0-0.761,0.086-0.983,0.258c-0.225,0.173-0.336,0.41-0.336,0.714c0,0.257,0.078,0.456,0.233,0.601
		c0.155,0.144,0.422,0.232,0.798,0.264l0.948,0.084c0.256,0.024,0.491,0.068,0.708,0.132c0.216,0.064,0.4,0.16,0.552,0.288
		s0.271,0.288,0.354,0.48c0.084,0.191,0.125,0.424,0.125,0.696C744.823,563.245,744.766,563.5,744.65,563.719z"/>
	<path fill="#FFFFFF" d="M747.056,561.962c0,0.644,0.148,1.143,0.444,1.497c0.296,0.354,0.728,0.53,1.296,0.53
		c0.344,0,0.631-0.054,0.857-0.162c0.229-0.107,0.459-0.277,0.691-0.51l0.588,0.517c-0.152,0.152-0.303,0.286-0.451,0.399
		c-0.147,0.114-0.305,0.209-0.474,0.286c-0.168,0.078-0.354,0.137-0.558,0.177c-0.204,0.041-0.43,0.062-0.678,0.062
		c-0.393,0-0.746-0.061-1.063-0.181c-0.316-0.119-0.586-0.304-0.811-0.552c-0.224-0.248-0.397-0.562-0.521-0.941
		s-0.186-0.83-0.186-1.351c0-0.96,0.216-1.704,0.647-2.231c0.433-0.528,1.024-0.792,1.776-0.792c0.768,0,1.363,0.256,1.787,0.768
		c0.425,0.512,0.637,1.208,0.637,2.088v0.396H747.056z M750.152,561.002c-0.008-0.088-0.018-0.168-0.029-0.24
		s-0.028-0.143-0.048-0.21c-0.021-0.068-0.046-0.143-0.078-0.223c-0.112-0.271-0.292-0.487-0.54-0.647s-0.527-0.24-0.84-0.24
		s-0.592,0.08-0.84,0.24s-0.428,0.376-0.541,0.647c-0.063,0.16-0.107,0.305-0.131,0.433c-0.024,0.128-0.041,0.312-0.049,0.552h3.121
		C750.168,561.193,750.159,561.09,750.152,561.002z"/>
	<path fill="#FFFFFF" d="M756.962,563.719c-0.116,0.22-0.28,0.408-0.492,0.563c-0.212,0.156-0.464,0.274-0.756,0.354
		s-0.618,0.12-0.979,0.12c-0.504,0-0.951-0.064-1.344-0.192c-0.392-0.128-0.752-0.348-1.08-0.66l0.576-0.576
		c0.232,0.248,0.504,0.425,0.816,0.528c0.313,0.104,0.652,0.156,1.02,0.156c0.488,0,0.872-0.086,1.152-0.258
		c0.279-0.172,0.42-0.435,0.42-0.786c0-0.256-0.078-0.456-0.234-0.601c-0.156-0.144-0.406-0.231-0.75-0.264l-0.972-0.084
		c-0.576-0.048-1.015-0.202-1.313-0.462c-0.301-0.26-0.451-0.634-0.451-1.122c0-0.271,0.055-0.514,0.162-0.726
		c0.108-0.212,0.259-0.393,0.451-0.54c0.191-0.148,0.422-0.263,0.689-0.343c0.268-0.079,0.559-0.119,0.87-0.119
		c0.424,0,0.817,0.052,1.182,0.155c0.364,0.104,0.679,0.265,0.942,0.48l-0.564,0.563c-0.208-0.159-0.445-0.277-0.714-0.354
		s-0.554-0.114-0.858-0.114c-0.432,0-0.76,0.086-0.983,0.258c-0.224,0.173-0.336,0.41-0.336,0.714c0,0.257,0.078,0.456,0.233,0.601
		c0.156,0.144,0.422,0.232,0.799,0.264l0.947,0.084c0.256,0.024,0.492,0.068,0.709,0.132c0.215,0.064,0.399,0.16,0.551,0.288
		c0.152,0.128,0.271,0.288,0.354,0.48c0.084,0.191,0.126,0.424,0.126,0.696C757.136,563.245,757.077,563.5,756.962,563.719z"/>
	<path fill="#FFFFFF" d="M758.804,564.685v-1.128h1.128v1.128H758.804z"/>
	<path fill="#FFFFFF" d="M765.847,564.685v-3.636c0-0.528-0.129-0.922-0.389-1.183c-0.261-0.26-0.615-0.39-1.063-0.39
		c-0.448,0-0.805,0.132-1.068,0.396c-0.264,0.264-0.396,0.655-0.396,1.176v3.636h-0.863v-5.904h0.863v0.648
		c0.209-0.24,0.453-0.42,0.732-0.54c0.28-0.12,0.588-0.18,0.924-0.18c0.641,0,1.145,0.184,1.512,0.552
		c0.408,0.4,0.613,0.948,0.613,1.644v3.78H765.847z"/>
	<path fill="#FFFFFF" d="M770.288,564.685c-0.521,0-0.9-0.15-1.141-0.45s-0.359-0.674-0.359-1.122v-6.972h0.863v6.936
		c0,0.288,0.057,0.505,0.168,0.648s0.32,0.216,0.624,0.216h0.468v0.744H770.288z"/>
</g>
<g enable-background="new    ">
	<path fill="#7F7F7F" d="M646.868,493.731c-0.244,0.106-0.535,0.159-0.875,0.159c-0.314,0-0.602-0.052-0.865-0.154
		c-0.264-0.104-0.494-0.261-0.69-0.471s-0.351-0.473-0.46-0.79c-0.109-0.316-0.165-0.685-0.165-1.104s0.056-0.786,0.165-1.1
		s0.264-0.575,0.46-0.785s0.427-0.368,0.69-0.476c0.264-0.106,0.551-0.16,0.865-0.16c0.34,0,0.631,0.054,0.875,0.16
		c0.242,0.107,0.491,0.297,0.744,0.57l-0.49,0.46c-0.186-0.206-0.363-0.35-0.529-0.43c-0.167-0.08-0.367-0.12-0.6-0.12
		c-0.24,0-0.457,0.047-0.65,0.14c-0.193,0.094-0.357,0.233-0.49,0.42c-0.113,0.16-0.195,0.342-0.245,0.545
		c-0.05,0.204-0.075,0.462-0.075,0.775s0.025,0.571,0.075,0.775c0.05,0.203,0.132,0.385,0.245,0.545
		c0.133,0.187,0.297,0.326,0.49,0.42c0.193,0.093,0.41,0.14,0.65,0.14c0.232,0,0.433-0.041,0.6-0.125
		c0.166-0.083,0.344-0.229,0.529-0.435l0.49,0.47C647.36,493.434,647.111,493.624,646.868,493.731z"/>
	<path fill="#7F7F7F" d="M652.083,493.831v-0.55c-0.174,0.2-0.377,0.352-0.613,0.455c-0.236,0.103-0.494,0.154-0.773,0.154
		c-0.537,0-0.959-0.153-1.266-0.46c-0.172-0.173-0.299-0.375-0.379-0.604c-0.08-0.23-0.119-0.488-0.119-0.775v-3.14h0.72v3.03
		c0,0.439,0.106,0.769,0.319,0.984c0.212,0.217,0.504,0.325,0.876,0.325s0.669-0.11,0.892-0.33s0.334-0.547,0.334-0.979v-3.03h0.729
		v4.92H652.083z"/>
	<path fill="#7F7F7F" d="M658.008,493.026c-0.097,0.184-0.233,0.34-0.41,0.47s-0.387,0.229-0.63,0.295
		c-0.244,0.066-0.516,0.1-0.814,0.1c-0.421,0-0.794-0.053-1.121-0.159c-0.326-0.107-0.627-0.29-0.899-0.551l0.479-0.479
		c0.193,0.207,0.42,0.354,0.68,0.439c0.261,0.087,0.544,0.131,0.851,0.131c0.407,0,0.727-0.072,0.96-0.216
		c0.233-0.143,0.35-0.361,0.35-0.654c0-0.214-0.064-0.38-0.194-0.5s-0.339-0.193-0.625-0.221l-0.81-0.069
		c-0.48-0.04-0.846-0.169-1.096-0.386c-0.25-0.216-0.375-0.527-0.375-0.935c0-0.227,0.045-0.429,0.135-0.604
		c0.09-0.177,0.215-0.327,0.375-0.45c0.16-0.124,0.352-0.219,0.575-0.285s0.466-0.101,0.726-0.101c0.354,0,0.682,0.044,0.984,0.131
		c0.303,0.086,0.564,0.22,0.785,0.399l-0.471,0.47c-0.173-0.133-0.371-0.231-0.594-0.295c-0.225-0.063-0.463-0.095-0.715-0.095
		c-0.361,0-0.635,0.072-0.82,0.215c-0.188,0.144-0.28,0.342-0.28,0.596c0,0.213,0.065,0.38,0.194,0.5
		c0.131,0.119,0.352,0.193,0.666,0.22l0.789,0.07c0.214,0.02,0.41,0.057,0.59,0.109c0.181,0.054,0.334,0.134,0.461,0.24
		s0.225,0.24,0.295,0.4c0.07,0.159,0.105,0.353,0.105,0.579C658.154,492.631,658.105,492.843,658.008,493.026z"/>
	<path fill="#7F7F7F" d="M660.843,493.831c-0.214,0-0.398-0.035-0.555-0.105c-0.157-0.069-0.287-0.164-0.391-0.284
		s-0.182-0.261-0.234-0.42c-0.055-0.16-0.08-0.33-0.08-0.511v-3.02h-0.621v-0.55h0.621v-1.54h0.72v1.54h1.05v0.55h-1.05v3
		c0,0.227,0.054,0.403,0.159,0.53c0.107,0.126,0.277,0.189,0.511,0.189h0.38v0.62H660.843z"/>
	<path fill="#7F7F7F" d="M666.347,492.446c-0.076,0.337-0.238,0.632-0.484,0.885c-0.174,0.174-0.377,0.31-0.609,0.41
		c-0.234,0.1-0.5,0.149-0.801,0.149c-0.3,0-0.566-0.05-0.8-0.149c-0.233-0.101-0.437-0.236-0.61-0.41
		c-0.127-0.127-0.229-0.265-0.305-0.415s-0.137-0.307-0.18-0.47c-0.044-0.163-0.074-0.335-0.09-0.516
		c-0.018-0.18-0.025-0.366-0.025-0.56c0-0.187,0.008-0.372,0.025-0.555c0.016-0.184,0.046-0.356,0.09-0.521
		c0.043-0.163,0.104-0.32,0.18-0.47c0.076-0.15,0.178-0.288,0.305-0.415c0.174-0.174,0.377-0.311,0.61-0.41s0.5-0.15,0.8-0.15
		c0.301,0,0.566,0.051,0.801,0.15c0.232,0.1,0.436,0.236,0.609,0.41c0.246,0.253,0.408,0.549,0.484,0.885
		c0.077,0.337,0.115,0.695,0.115,1.075S666.424,492.109,666.347,492.446z M665.733,490.951c-0.007-0.14-0.023-0.276-0.05-0.41
		c-0.027-0.133-0.066-0.258-0.121-0.375c-0.053-0.116-0.123-0.222-0.209-0.315c-0.24-0.239-0.541-0.359-0.9-0.359
		c-0.354,0-0.65,0.12-0.891,0.359c-0.093,0.094-0.164,0.199-0.215,0.315c-0.049,0.117-0.09,0.242-0.119,0.375
		c-0.03,0.134-0.049,0.271-0.055,0.41c-0.008,0.14-0.011,0.28-0.011,0.42s0.003,0.28,0.011,0.42c0.006,0.14,0.024,0.276,0.055,0.41
		c0.029,0.134,0.07,0.26,0.119,0.38c0.051,0.12,0.122,0.224,0.215,0.31c0.24,0.24,0.537,0.36,0.891,0.36c0.359,0,0.66-0.12,0.9-0.36
		c0.086-0.086,0.156-0.189,0.209-0.31c0.055-0.12,0.094-0.246,0.121-0.38c0.026-0.134,0.043-0.271,0.05-0.41s0.01-0.28,0.01-0.42
		S665.74,491.091,665.733,490.951z"/>
	<path fill="#7F7F7F" d="M674.323,493.831v-3.03c0-0.439-0.108-0.768-0.325-0.984s-0.512-0.325-0.885-0.325
		c-0.36,0-0.655,0.106-0.885,0.32c-0.23,0.213-0.346,0.517-0.346,0.909v3.11h-0.72v-3.03c0-0.439-0.108-0.768-0.325-0.984
		s-0.512-0.325-0.885-0.325s-0.672,0.109-0.895,0.33c-0.225,0.22-0.336,0.547-0.336,0.979v3.03h-0.72v-4.92h0.72v0.54
		c0.174-0.2,0.379-0.351,0.615-0.45s0.495-0.15,0.775-0.15c0.34,0,0.639,0.069,0.895,0.205c0.257,0.137,0.462,0.342,0.615,0.615
		c0.387-0.547,0.927-0.82,1.62-0.82c0.267,0,0.507,0.04,0.72,0.12s0.396,0.193,0.551,0.341c0.353,0.34,0.529,0.796,0.529,1.369v3.15
		H674.323z"/>
	<path fill="#7F7F7F" d="M682.212,493.831v-0.59c-0.199,0.26-0.414,0.434-0.643,0.52c-0.229,0.087-0.48,0.13-0.752,0.13
		c-0.254,0-0.482-0.038-0.688-0.114c-0.206-0.077-0.376-0.182-0.509-0.315c-0.126-0.126-0.228-0.27-0.304-0.43
		c-0.077-0.16-0.136-0.332-0.18-0.516c-0.043-0.183-0.073-0.371-0.089-0.564c-0.018-0.193-0.025-0.387-0.025-0.58
		s0.008-0.387,0.025-0.58c0.016-0.193,0.046-0.382,0.09-0.565c0.043-0.183,0.104-0.354,0.18-0.515s0.178-0.303,0.305-0.43
		c0.133-0.134,0.304-0.238,0.51-0.315c0.207-0.076,0.438-0.115,0.69-0.115c0.273,0,0.523,0.042,0.75,0.125
		c0.227,0.084,0.44,0.252,0.64,0.506l-0.01-2.771h0.73v7.12H682.212z M682.163,490.671c-0.027-0.227-0.084-0.427-0.17-0.6
		c-0.086-0.174-0.211-0.313-0.373-0.42c-0.163-0.106-0.377-0.16-0.643-0.16s-0.48,0.054-0.643,0.16s-0.287,0.246-0.373,0.42
		c-0.087,0.173-0.145,0.373-0.175,0.6s-0.045,0.46-0.045,0.7s0.015,0.474,0.045,0.7s0.088,0.427,0.175,0.6
		c0.086,0.174,0.211,0.313,0.373,0.42c0.162,0.107,0.377,0.16,0.643,0.16s0.479-0.053,0.643-0.16
		c0.162-0.106,0.287-0.246,0.373-0.42c0.086-0.173,0.143-0.373,0.17-0.6c0.025-0.227,0.039-0.46,0.039-0.7
		S682.189,490.897,682.163,490.671z"/>
	<path fill="#7F7F7F" d="M685.183,491.561c0,0.536,0.123,0.952,0.369,1.247c0.247,0.295,0.607,0.442,1.08,0.442
		c0.287,0,0.525-0.045,0.715-0.135c0.19-0.09,0.382-0.231,0.575-0.425l0.49,0.43c-0.127,0.127-0.252,0.238-0.375,0.333
		c-0.124,0.095-0.255,0.175-0.396,0.239c-0.14,0.064-0.295,0.113-0.465,0.146c-0.17,0.034-0.358,0.051-0.564,0.051
		c-0.327,0-0.622-0.05-0.885-0.149c-0.264-0.101-0.488-0.254-0.676-0.46c-0.187-0.207-0.332-0.469-0.435-0.785
		c-0.104-0.316-0.155-0.691-0.155-1.125c0-0.8,0.18-1.42,0.54-1.86c0.36-0.439,0.854-0.66,1.479-0.66
		c0.641,0,1.137,0.214,1.49,0.641s0.53,1.007,0.53,1.74v0.33H685.183z M687.763,490.76c-0.008-0.073-0.016-0.14-0.025-0.199
		c-0.01-0.061-0.023-0.119-0.04-0.176s-0.038-0.118-0.065-0.185c-0.094-0.227-0.243-0.406-0.449-0.54
		c-0.207-0.134-0.44-0.2-0.701-0.2c-0.26,0-0.492,0.066-0.699,0.2s-0.357,0.313-0.45,0.54c-0.054,0.134-0.09,0.253-0.11,0.36
		c-0.02,0.106-0.033,0.26-0.039,0.46h2.6C687.776,490.921,687.769,490.835,687.763,490.76z"/>
	<path fill="#7F7F7F" d="M693.438,493.026c-0.097,0.184-0.233,0.34-0.41,0.47s-0.387,0.229-0.63,0.295
		c-0.244,0.066-0.516,0.1-0.814,0.1c-0.421,0-0.794-0.053-1.121-0.159c-0.326-0.107-0.627-0.29-0.899-0.551l0.479-0.479
		c0.193,0.207,0.42,0.354,0.68,0.439c0.261,0.087,0.544,0.131,0.851,0.131c0.407,0,0.727-0.072,0.96-0.216
		c0.233-0.143,0.35-0.361,0.35-0.654c0-0.214-0.064-0.38-0.194-0.5s-0.339-0.193-0.625-0.221l-0.81-0.069
		c-0.48-0.04-0.846-0.169-1.096-0.386c-0.25-0.216-0.375-0.527-0.375-0.935c0-0.227,0.045-0.429,0.135-0.604
		c0.09-0.177,0.215-0.327,0.375-0.45c0.16-0.124,0.352-0.219,0.575-0.285s0.466-0.101,0.726-0.101c0.354,0,0.682,0.044,0.984,0.131
		c0.303,0.086,0.564,0.22,0.785,0.399l-0.471,0.47c-0.173-0.133-0.371-0.231-0.594-0.295c-0.225-0.063-0.463-0.095-0.715-0.095
		c-0.361,0-0.635,0.072-0.82,0.215c-0.188,0.144-0.28,0.342-0.28,0.596c0,0.213,0.065,0.38,0.194,0.5
		c0.131,0.119,0.352,0.193,0.666,0.22l0.789,0.07c0.214,0.02,0.41,0.057,0.59,0.109c0.181,0.054,0.334,0.134,0.461,0.24
		s0.225,0.24,0.295,0.4c0.07,0.159,0.105,0.353,0.105,0.579C693.583,492.631,693.534,492.843,693.438,493.026z"/>
	<path fill="#7F7F7F" d="M694.952,487.51v-0.81h0.811v0.81H694.952z M694.992,493.831v-4.92h0.72v4.92H694.992z"/>
	<path fill="#7F7F7F" d="M701.013,494.826c-0.094,0.257-0.228,0.479-0.4,0.665c-0.174,0.187-0.389,0.333-0.645,0.439
		c-0.258,0.107-0.546,0.16-0.865,0.16c-0.188,0-0.354-0.012-0.5-0.035c-0.146-0.024-0.285-0.063-0.416-0.117
		c-0.129-0.054-0.256-0.123-0.379-0.208c-0.124-0.085-0.249-0.188-0.375-0.31l0.469-0.46c0.088,0.08,0.172,0.15,0.256,0.21
		c0.083,0.061,0.17,0.111,0.26,0.155c0.09,0.043,0.188,0.075,0.295,0.095c0.107,0.021,0.23,0.03,0.37,0.03
		c0.24,0,0.444-0.04,0.615-0.119c0.17-0.079,0.31-0.185,0.42-0.317c0.11-0.132,0.19-0.289,0.239-0.471
		c0.051-0.182,0.076-0.378,0.076-0.59v-0.764c-0.201,0.25-0.414,0.417-0.641,0.503c-0.227,0.085-0.473,0.128-0.74,0.128
		c-0.253,0-0.481-0.04-0.685-0.12c-0.204-0.08-0.372-0.187-0.505-0.32c-0.247-0.246-0.408-0.55-0.485-0.91
		c-0.077-0.359-0.114-0.739-0.114-1.14s0.037-0.78,0.114-1.14c0.077-0.36,0.238-0.664,0.485-0.91
		c0.133-0.134,0.303-0.238,0.51-0.315c0.207-0.076,0.437-0.115,0.689-0.115c0.273,0,0.521,0.042,0.746,0.125
		c0.223,0.084,0.435,0.256,0.635,0.516v-0.58h0.709v5.07C701.152,494.288,701.106,494.569,701.013,494.826z M700.392,490.659
		c-0.026-0.224-0.083-0.421-0.17-0.592c-0.086-0.17-0.209-0.309-0.369-0.416c-0.16-0.106-0.374-0.16-0.641-0.16
		s-0.481,0.054-0.645,0.16c-0.164,0.107-0.289,0.246-0.375,0.416c-0.087,0.171-0.144,0.368-0.17,0.592
		c-0.027,0.224-0.041,0.449-0.041,0.677c0,0.234,0.014,0.461,0.041,0.682c0.026,0.221,0.083,0.417,0.17,0.587
		c0.086,0.171,0.211,0.31,0.375,0.416c0.163,0.107,0.378,0.16,0.645,0.16s0.48-0.053,0.641-0.16c0.16-0.106,0.283-0.245,0.369-0.416
		c0.087-0.17,0.144-0.366,0.17-0.587c0.027-0.221,0.041-0.447,0.041-0.682C700.433,491.108,700.419,490.883,700.392,490.659z"/>
	<path fill="#7F7F7F" d="M706.102,493.831v-3.03c0-0.439-0.108-0.768-0.325-0.984s-0.512-0.325-0.885-0.325s-0.67,0.109-0.89,0.33
		c-0.22,0.22-0.33,0.547-0.33,0.979v3.03h-0.72v-4.92h0.72v0.54c0.173-0.2,0.376-0.351,0.61-0.45c0.232-0.1,0.49-0.15,0.77-0.15
		c0.533,0,0.953,0.154,1.26,0.461c0.34,0.333,0.51,0.789,0.51,1.369v3.15H706.102z"/>
	<path fill="#7F7F7F" d="M713.812,489.85c-0.133-0.133-0.26-0.227-0.38-0.279c-0.12-0.054-0.276-0.08-0.47-0.08
		c-0.18,0-0.344,0.033-0.49,0.1c-0.146,0.067-0.27,0.16-0.37,0.28s-0.179,0.26-0.235,0.42s-0.084,0.333-0.084,0.521v3.02h-0.721
		v-4.92h0.721v0.6c0.133-0.206,0.324-0.368,0.574-0.484c0.25-0.117,0.519-0.176,0.805-0.176c0.234,0,0.445,0.034,0.635,0.101
		c0.191,0.066,0.372,0.187,0.546,0.36L713.812,489.85z"/>
	<path fill="#7F7F7F" d="M715.382,491.561c0,0.536,0.123,0.952,0.37,1.247s0.606,0.442,1.079,0.442c0.287,0,0.525-0.045,0.716-0.135
		s0.382-0.231,0.575-0.425l0.49,0.43c-0.127,0.127-0.252,0.238-0.375,0.333c-0.124,0.095-0.256,0.175-0.396,0.239
		s-0.295,0.113-0.465,0.146c-0.171,0.034-0.358,0.051-0.565,0.051c-0.326,0-0.621-0.05-0.885-0.149
		c-0.264-0.101-0.488-0.254-0.675-0.46c-0.187-0.207-0.332-0.469-0.435-0.785c-0.104-0.316-0.156-0.691-0.156-1.125
		c0-0.8,0.181-1.42,0.541-1.86c0.359-0.439,0.854-0.66,1.479-0.66c0.64,0,1.137,0.214,1.49,0.641c0.353,0.427,0.53,1.007,0.53,1.74
		v0.33H715.382z M717.962,490.76c-0.007-0.073-0.016-0.14-0.025-0.199c-0.01-0.061-0.023-0.119-0.039-0.176
		c-0.018-0.057-0.039-0.118-0.066-0.185c-0.093-0.227-0.242-0.406-0.449-0.54s-0.439-0.2-0.7-0.2c-0.26,0-0.493,0.066-0.7,0.2
		s-0.356,0.313-0.449,0.54c-0.054,0.134-0.09,0.253-0.11,0.36c-0.021,0.106-0.034,0.26-0.04,0.46h2.6
		C717.976,490.921,717.968,490.835,717.962,490.76z"/>
	<path fill="#7F7F7F" d="M721.612,493.831c-0.214,0-0.398-0.035-0.555-0.105c-0.157-0.069-0.286-0.164-0.39-0.284
		s-0.182-0.261-0.235-0.42c-0.054-0.16-0.08-0.33-0.08-0.511v-3.02h-0.62v-0.55h0.62v-1.54h0.72v1.54h1.051v0.55h-1.051v3
		c0,0.227,0.054,0.403,0.16,0.53c0.106,0.126,0.277,0.189,0.51,0.189h0.381v0.62H721.612z"/>
	<path fill="#7F7F7F" d="M726.302,489.85c-0.133-0.133-0.26-0.227-0.38-0.279c-0.12-0.054-0.276-0.08-0.47-0.08
		c-0.18,0-0.344,0.033-0.49,0.1c-0.146,0.067-0.27,0.16-0.37,0.28s-0.179,0.26-0.235,0.42s-0.084,0.333-0.084,0.521v3.02h-0.721
		v-4.92h0.721v0.6c0.133-0.206,0.324-0.368,0.574-0.484c0.25-0.117,0.519-0.176,0.805-0.176c0.234,0,0.445,0.034,0.635,0.101
		c0.191,0.066,0.372,0.187,0.546,0.36L726.302,489.85z"/>
	<path fill="#7F7F7F" d="M727.872,491.561c0,0.536,0.123,0.952,0.369,1.247c0.247,0.295,0.607,0.442,1.08,0.442
		c0.287,0,0.525-0.045,0.715-0.135c0.19-0.09,0.382-0.231,0.575-0.425l0.49,0.43c-0.127,0.127-0.252,0.238-0.375,0.333
		c-0.124,0.095-0.255,0.175-0.396,0.239c-0.14,0.064-0.295,0.113-0.465,0.146c-0.17,0.034-0.358,0.051-0.564,0.051
		c-0.327,0-0.622-0.05-0.885-0.149c-0.264-0.101-0.488-0.254-0.676-0.46c-0.187-0.207-0.332-0.469-0.435-0.785
		c-0.104-0.316-0.155-0.691-0.155-1.125c0-0.8,0.18-1.42,0.54-1.86c0.36-0.439,0.854-0.66,1.479-0.66
		c0.641,0,1.137,0.214,1.49,0.641s0.53,1.007,0.53,1.74v0.33H727.872z M730.452,490.76c-0.008-0.073-0.016-0.14-0.025-0.199
		c-0.01-0.061-0.023-0.119-0.04-0.176s-0.038-0.118-0.065-0.185c-0.094-0.227-0.243-0.406-0.449-0.54
		c-0.207-0.134-0.44-0.2-0.701-0.2c-0.26,0-0.492,0.066-0.699,0.2s-0.357,0.313-0.45,0.54c-0.054,0.134-0.09,0.253-0.11,0.36
		c-0.02,0.106-0.033,0.26-0.039,0.46h2.6C730.465,490.921,730.458,490.835,730.452,490.76z"/>
	<path fill="#7F7F7F" d="M735.512,493.831v-0.47c-0.2,0.2-0.405,0.338-0.614,0.415c-0.211,0.076-0.479,0.114-0.806,0.114
		c-0.34,0-0.618-0.034-0.835-0.104s-0.402-0.186-0.555-0.345c-0.121-0.12-0.212-0.269-0.275-0.445s-0.096-0.361-0.096-0.555
		c0-0.434,0.146-0.778,0.436-1.035s0.712-0.385,1.266-0.385h1.479v-0.471c0-0.359-0.097-0.63-0.29-0.81s-0.517-0.271-0.97-0.271
		c-0.32,0-0.57,0.042-0.75,0.125c-0.181,0.084-0.344,0.229-0.49,0.436l-0.489-0.45c0.219-0.286,0.465-0.48,0.734-0.58
		s0.605-0.15,1.005-0.15c0.667,0,1.161,0.139,1.485,0.415c0.322,0.277,0.484,0.686,0.484,1.226v3.34H735.512z M735.512,491.561
		h-1.38c-0.733,0-1.1,0.289-1.1,0.869c0,0.287,0.09,0.499,0.27,0.636s0.467,0.205,0.859,0.205c0.214,0,0.412-0.017,0.596-0.051
		c0.184-0.033,0.352-0.126,0.505-0.279c0.167-0.16,0.25-0.443,0.25-0.851V491.561z"/>
	<path fill="#7F7F7F" d="M739.362,493.831c-0.214,0-0.398-0.035-0.555-0.105c-0.157-0.069-0.286-0.164-0.39-0.284
		s-0.182-0.261-0.235-0.42c-0.054-0.16-0.08-0.33-0.08-0.511v-3.02h-0.62v-0.55h0.62v-1.54h0.72v1.54h1.051v0.55h-1.051v3
		c0,0.227,0.054,0.403,0.16,0.53c0.106,0.126,0.277,0.189,0.51,0.189h0.381v0.62H739.362z"/>
	<path fill="#7F7F7F" d="M744.706,493.026c-0.096,0.184-0.232,0.34-0.41,0.47c-0.176,0.13-0.387,0.229-0.629,0.295
		c-0.244,0.066-0.516,0.1-0.815,0.1c-0.421,0-0.794-0.053-1.12-0.159c-0.326-0.107-0.627-0.29-0.9-0.551l0.48-0.479
		c0.193,0.207,0.42,0.354,0.68,0.439c0.26,0.087,0.543,0.131,0.85,0.131c0.407,0,0.727-0.072,0.961-0.216
		c0.232-0.143,0.35-0.361,0.35-0.654c0-0.214-0.064-0.38-0.195-0.5c-0.13-0.12-0.338-0.193-0.625-0.221l-0.81-0.069
		c-0.479-0.04-0.845-0.169-1.095-0.386c-0.25-0.216-0.375-0.527-0.375-0.935c0-0.227,0.045-0.429,0.135-0.604
		c0.09-0.177,0.215-0.327,0.375-0.45c0.16-0.124,0.352-0.219,0.574-0.285c0.225-0.066,0.466-0.101,0.726-0.101
		c0.354,0,0.682,0.044,0.985,0.131c0.303,0.086,0.564,0.22,0.785,0.399l-0.471,0.47c-0.174-0.133-0.371-0.231-0.595-0.295
		c-0.224-0.063-0.462-0.095-0.715-0.095c-0.36,0-0.634,0.072-0.82,0.215c-0.187,0.144-0.28,0.342-0.28,0.596
		c0,0.213,0.065,0.38,0.195,0.5c0.13,0.119,0.352,0.193,0.665,0.22l0.79,0.07c0.213,0.02,0.41,0.057,0.59,0.109
		c0.18,0.054,0.334,0.134,0.46,0.24c0.127,0.106,0.226,0.24,0.296,0.4c0.069,0.159,0.104,0.353,0.104,0.579
		C744.852,492.631,744.803,492.843,744.706,493.026z"/>
	<path fill="#7F7F7F" d="M749.631,489.491v4.34h-0.72v-4.34h-0.63v-0.55h0.63v-0.931c0-0.18,0.025-0.35,0.074-0.51
		c0.051-0.16,0.129-0.3,0.236-0.42c0.105-0.12,0.236-0.215,0.389-0.285c0.154-0.07,0.338-0.104,0.551-0.104h0.52v0.62h-0.39
		c-0.233,0-0.401,0.063-0.505,0.189s-0.155,0.304-0.155,0.53v0.91h1.05v0.55H749.631z"/>
	<path fill="#7F7F7F" d="M755.347,492.446c-0.077,0.337-0.238,0.632-0.485,0.885c-0.173,0.174-0.377,0.31-0.61,0.41
		c-0.232,0.1-0.5,0.149-0.8,0.149s-0.566-0.05-0.8-0.149c-0.233-0.101-0.438-0.236-0.609-0.41c-0.127-0.127-0.229-0.265-0.306-0.415
		s-0.137-0.307-0.181-0.47c-0.043-0.163-0.072-0.335-0.09-0.516c-0.016-0.18-0.024-0.366-0.024-0.56
		c0-0.187,0.009-0.372,0.024-0.555c0.018-0.184,0.047-0.356,0.09-0.521c0.044-0.163,0.104-0.32,0.181-0.47
		c0.077-0.15,0.179-0.288,0.306-0.415c0.172-0.174,0.376-0.311,0.609-0.41s0.5-0.15,0.8-0.15s0.567,0.051,0.8,0.15
		c0.233,0.1,0.438,0.236,0.61,0.41c0.247,0.253,0.408,0.549,0.485,0.885c0.076,0.337,0.115,0.695,0.115,1.075
		S755.423,492.109,755.347,492.446z M754.732,490.951c-0.007-0.14-0.023-0.276-0.051-0.41c-0.025-0.133-0.066-0.258-0.119-0.375
		c-0.054-0.116-0.123-0.222-0.211-0.315c-0.239-0.239-0.539-0.359-0.899-0.359c-0.354,0-0.649,0.12-0.89,0.359
		c-0.094,0.094-0.165,0.199-0.215,0.315c-0.051,0.117-0.09,0.242-0.121,0.375c-0.029,0.134-0.048,0.271-0.055,0.41
		c-0.006,0.14-0.01,0.28-0.01,0.42s0.004,0.28,0.01,0.42c0.007,0.14,0.025,0.276,0.055,0.41c0.031,0.134,0.07,0.26,0.121,0.38
		c0.05,0.12,0.121,0.224,0.215,0.31c0.24,0.24,0.536,0.36,0.89,0.36c0.36,0,0.66-0.12,0.899-0.36
		c0.088-0.086,0.157-0.189,0.211-0.31c0.053-0.12,0.094-0.246,0.119-0.38c0.027-0.134,0.044-0.271,0.051-0.41
		c0.006-0.14,0.01-0.28,0.01-0.42S754.738,491.091,754.732,490.951z"/>
	<path fill="#7F7F7F" d="M759.751,489.85c-0.133-0.133-0.26-0.227-0.38-0.279c-0.12-0.054-0.276-0.08-0.47-0.08
		c-0.18,0-0.344,0.033-0.49,0.1c-0.146,0.067-0.27,0.16-0.37,0.28s-0.179,0.26-0.235,0.42s-0.084,0.333-0.084,0.521v3.02h-0.721
		v-4.92h0.721v0.6c0.133-0.206,0.324-0.368,0.574-0.484c0.25-0.117,0.519-0.176,0.805-0.176c0.234,0,0.445,0.034,0.635,0.101
		c0.191,0.066,0.372,0.187,0.546,0.36L759.751,489.85z"/>
	<path fill="#7F7F7F" d="M764.152,491.561c0,0.536,0.123,0.952,0.369,1.247c0.247,0.295,0.607,0.442,1.08,0.442
		c0.287,0,0.525-0.045,0.715-0.135c0.19-0.09,0.382-0.231,0.575-0.425l0.49,0.43c-0.127,0.127-0.252,0.238-0.375,0.333
		c-0.124,0.095-0.255,0.175-0.396,0.239c-0.14,0.064-0.295,0.113-0.465,0.146c-0.17,0.034-0.358,0.051-0.564,0.051
		c-0.327,0-0.622-0.05-0.885-0.149c-0.264-0.101-0.488-0.254-0.676-0.46c-0.187-0.207-0.332-0.469-0.435-0.785
		c-0.104-0.316-0.155-0.691-0.155-1.125c0-0.8,0.18-1.42,0.54-1.86c0.36-0.439,0.854-0.66,1.479-0.66
		c0.641,0,1.137,0.214,1.49,0.641s0.53,1.007,0.53,1.74v0.33H764.152z M766.732,490.76c-0.008-0.073-0.016-0.14-0.025-0.199
		c-0.01-0.061-0.023-0.119-0.04-0.176s-0.038-0.118-0.065-0.185c-0.094-0.227-0.243-0.406-0.449-0.54
		c-0.207-0.134-0.44-0.2-0.701-0.2c-0.26,0-0.492,0.066-0.699,0.2s-0.357,0.313-0.45,0.54c-0.054,0.134-0.09,0.253-0.11,0.36
		c-0.02,0.106-0.033,0.26-0.039,0.46h2.6C766.744,490.921,766.738,490.835,766.732,490.76z"/>
	<path fill="#7F7F7F" d="M770.551,493.831h-0.64l-1.801-4.92h0.781l1.34,3.95l1.35-3.95h0.779L770.551,493.831z"/>
	<path fill="#7F7F7F" d="M773.721,491.561c0,0.536,0.123,0.952,0.37,1.247c0.246,0.295,0.606,0.442,1.08,0.442
		c0.286,0,0.525-0.045,0.715-0.135s0.381-0.231,0.574-0.425l0.49,0.43c-0.127,0.127-0.252,0.238-0.375,0.333
		s-0.254,0.175-0.395,0.239s-0.295,0.113-0.465,0.146c-0.17,0.034-0.359,0.051-0.565,0.051c-0.327,0-0.622-0.05-0.885-0.149
		c-0.264-0.101-0.488-0.254-0.675-0.46c-0.188-0.207-0.332-0.469-0.436-0.785s-0.154-0.691-0.154-1.125c0-0.8,0.18-1.42,0.539-1.86
		c0.36-0.439,0.854-0.66,1.48-0.66c0.641,0,1.137,0.214,1.49,0.641s0.529,1.007,0.529,1.74v0.33H773.721z M776.301,490.76
		c-0.007-0.073-0.015-0.14-0.025-0.199c-0.01-0.061-0.023-0.119-0.04-0.176s-0.038-0.118-0.064-0.185
		c-0.094-0.227-0.244-0.406-0.45-0.54c-0.207-0.134-0.44-0.2-0.7-0.2s-0.493,0.066-0.699,0.2c-0.207,0.134-0.357,0.313-0.451,0.54
		c-0.053,0.134-0.09,0.253-0.109,0.36c-0.02,0.106-0.033,0.26-0.04,0.46h2.601C776.314,490.921,776.308,490.835,776.301,490.76z"/>
	<path fill="#7F7F7F" d="M781.322,489.85c-0.134-0.133-0.26-0.227-0.381-0.279c-0.119-0.054-0.276-0.08-0.47-0.08
		c-0.18,0-0.343,0.033-0.489,0.1c-0.147,0.067-0.271,0.16-0.371,0.28c-0.1,0.12-0.178,0.26-0.234,0.42s-0.085,0.333-0.085,0.521
		v3.02h-0.72v-4.92h0.72v0.6c0.134-0.206,0.325-0.368,0.575-0.484c0.25-0.117,0.518-0.176,0.805-0.176
		c0.233,0,0.445,0.034,0.635,0.101c0.19,0.066,0.371,0.187,0.545,0.36L781.322,489.85z"/>
	<path fill="#7F7F7F" d="M784.001,495.021c-0.094,0.26-0.21,0.453-0.35,0.579c-0.134,0.127-0.284,0.216-0.451,0.266
		c-0.166,0.05-0.336,0.075-0.51,0.075h-0.31v-0.641h0.22c0.247,0,0.424-0.045,0.53-0.135s0.2-0.248,0.28-0.475l0.35-0.96l-1.77-4.82
		h0.779l1.351,3.95l1.34-3.95h0.78L784.001,495.021z"/>
	<path fill="#7F7F7F" d="M790.796,492.446c-0.077,0.337-0.238,0.632-0.485,0.885c-0.173,0.174-0.377,0.31-0.61,0.41
		c-0.232,0.1-0.5,0.149-0.8,0.149s-0.566-0.05-0.8-0.149c-0.233-0.101-0.438-0.236-0.609-0.41c-0.127-0.127-0.229-0.265-0.306-0.415
		s-0.137-0.307-0.181-0.47c-0.043-0.163-0.072-0.335-0.09-0.516c-0.016-0.18-0.024-0.366-0.024-0.56
		c0-0.187,0.009-0.372,0.024-0.555c0.018-0.184,0.047-0.356,0.09-0.521c0.044-0.163,0.104-0.32,0.181-0.47
		c0.077-0.15,0.179-0.288,0.306-0.415c0.172-0.174,0.376-0.311,0.609-0.41s0.5-0.15,0.8-0.15s0.567,0.051,0.8,0.15
		c0.233,0.1,0.438,0.236,0.61,0.41c0.247,0.253,0.408,0.549,0.485,0.885c0.076,0.337,0.115,0.695,0.115,1.075
		S790.872,492.109,790.796,492.446z M790.181,490.951c-0.007-0.14-0.023-0.276-0.051-0.41c-0.025-0.133-0.066-0.258-0.119-0.375
		c-0.054-0.116-0.123-0.222-0.211-0.315c-0.239-0.239-0.539-0.359-0.899-0.359c-0.354,0-0.649,0.12-0.89,0.359
		c-0.094,0.094-0.165,0.199-0.215,0.315c-0.051,0.117-0.09,0.242-0.121,0.375c-0.029,0.134-0.048,0.271-0.055,0.41
		c-0.006,0.14-0.01,0.28-0.01,0.42s0.004,0.28,0.01,0.42c0.007,0.14,0.025,0.276,0.055,0.41c0.031,0.134,0.07,0.26,0.121,0.38
		c0.05,0.12,0.121,0.224,0.215,0.31c0.24,0.24,0.536,0.36,0.89,0.36c0.36,0,0.66-0.12,0.899-0.36
		c0.088-0.086,0.157-0.189,0.211-0.31c0.053-0.12,0.094-0.246,0.119-0.38c0.027-0.134,0.044-0.271,0.051-0.41
		c0.006-0.14,0.01-0.28,0.01-0.42S790.187,491.091,790.181,490.951z"/>
	<path fill="#7F7F7F" d="M795.601,493.831v-3.03c0-0.439-0.108-0.768-0.324-0.984c-0.217-0.217-0.512-0.325-0.886-0.325
		c-0.373,0-0.67,0.109-0.89,0.33c-0.221,0.22-0.33,0.547-0.33,0.979v3.03h-0.721v-4.92h0.721v0.54c0.174-0.2,0.377-0.351,0.609-0.45
		c0.234-0.1,0.49-0.15,0.771-0.15c0.533,0,0.953,0.154,1.26,0.461c0.341,0.333,0.511,0.789,0.511,1.369v3.15H795.601z"/>
	<path fill="#7F7F7F" d="M798.521,491.561c0,0.536,0.123,0.952,0.37,1.247s0.606,0.442,1.079,0.442c0.287,0,0.525-0.045,0.716-0.135
		s0.382-0.231,0.575-0.425l0.49,0.43c-0.127,0.127-0.252,0.238-0.375,0.333c-0.124,0.095-0.256,0.175-0.396,0.239
		s-0.295,0.113-0.465,0.146c-0.171,0.034-0.358,0.051-0.565,0.051c-0.326,0-0.621-0.05-0.885-0.149
		c-0.264-0.101-0.488-0.254-0.675-0.46c-0.187-0.207-0.332-0.469-0.435-0.785c-0.104-0.316-0.156-0.691-0.156-1.125
		c0-0.8,0.181-1.42,0.541-1.86c0.359-0.439,0.854-0.66,1.479-0.66c0.64,0,1.137,0.214,1.49,0.641c0.353,0.427,0.53,1.007,0.53,1.74
		v0.33H798.521z M801.101,490.76c-0.007-0.073-0.016-0.14-0.025-0.199c-0.01-0.061-0.023-0.119-0.039-0.176
		c-0.018-0.057-0.039-0.118-0.066-0.185c-0.093-0.227-0.242-0.406-0.449-0.54s-0.439-0.2-0.7-0.2c-0.26,0-0.493,0.066-0.7,0.2
		s-0.356,0.313-0.449,0.54c-0.054,0.134-0.09,0.253-0.11,0.36c-0.021,0.106-0.034,0.26-0.04,0.46h2.6
		C801.115,490.921,801.107,490.835,801.101,490.76z"/>
</g>
<g enable-background="new    ">
	<path d="M646.695,512.203c-0.074,0.205-0.182,0.383-0.32,0.532s-0.311,0.267-0.516,0.352c-0.205,0.086-0.436,0.128-0.691,0.128
		c-0.15,0-0.283-0.009-0.4-0.028c-0.117-0.019-0.229-0.05-0.332-0.093c-0.104-0.044-0.205-0.1-0.304-0.167s-0.199-0.15-0.3-0.247
		l0.375-0.368c0.07,0.063,0.138,0.12,0.205,0.168c0.066,0.048,0.135,0.089,0.207,0.124c0.072,0.034,0.15,0.06,0.236,0.076
		c0.086,0.016,0.184,0.023,0.296,0.023c0.192,0,0.356-0.031,0.492-0.095s0.248-0.148,0.336-0.254
		c0.088-0.106,0.152-0.231,0.192-0.377c0.039-0.146,0.06-0.303,0.06-0.472v-0.61c-0.159,0.199-0.331,0.333-0.512,0.401
		c-0.182,0.068-0.379,0.103-0.593,0.103c-0.202,0-0.385-0.032-0.547-0.096c-0.163-0.064-0.298-0.149-0.404-0.257
		c-0.197-0.197-0.327-0.439-0.389-0.728c-0.061-0.288-0.092-0.592-0.092-0.912s0.031-0.624,0.092-0.912
		c0.062-0.288,0.191-0.53,0.389-0.728c0.106-0.107,0.242-0.191,0.408-0.252c0.165-0.062,0.349-0.093,0.552-0.093
		c0.218,0,0.417,0.034,0.596,0.101s0.349,0.204,0.509,0.412v-0.464h0.567v4.056C646.807,511.772,646.769,511.998,646.695,512.203z
		 M646.198,508.87c-0.021-0.18-0.066-0.337-0.136-0.474s-0.168-0.247-0.296-0.333c-0.128-0.085-0.299-0.128-0.512-0.128
		c-0.214,0-0.386,0.043-0.516,0.128c-0.131,0.086-0.231,0.196-0.301,0.333s-0.115,0.294-0.136,0.474
		c-0.021,0.179-0.032,0.359-0.032,0.541c0,0.188,0.011,0.369,0.032,0.546c0.021,0.176,0.066,0.333,0.136,0.469
		c0.069,0.137,0.17,0.248,0.301,0.333c0.13,0.086,0.302,0.129,0.516,0.129c0.213,0,0.384-0.043,0.512-0.129
		c0.128-0.085,0.227-0.196,0.296-0.333c0.069-0.136,0.114-0.293,0.136-0.469c0.021-0.177,0.032-0.358,0.032-0.546
		C646.231,509.229,646.22,509.049,646.198,508.87z"/>
	<path d="M648.607,509.591c0,0.43,0.1,0.763,0.297,0.998c0.197,0.236,0.484,0.354,0.863,0.354c0.229,0,0.42-0.036,0.572-0.108
		c0.152-0.071,0.305-0.185,0.46-0.34l0.392,0.344c-0.102,0.103-0.201,0.191-0.3,0.267c-0.099,0.076-0.204,0.14-0.315,0.191
		c-0.112,0.052-0.236,0.091-0.373,0.118c-0.135,0.026-0.286,0.04-0.451,0.04c-0.262,0-0.498-0.04-0.708-0.12
		c-0.211-0.08-0.391-0.202-0.54-0.368c-0.149-0.165-0.266-0.374-0.348-0.628c-0.083-0.253-0.125-0.553-0.125-0.899
		c0-0.641,0.145-1.136,0.433-1.488c0.288-0.352,0.683-0.528,1.185-0.528c0.512,0,0.908,0.171,1.191,0.513
		c0.283,0.341,0.424,0.805,0.424,1.392v0.264H648.607z M650.671,508.951c-0.006-0.059-0.012-0.112-0.02-0.16s-0.02-0.095-0.033-0.14
		c-0.013-0.045-0.03-0.095-0.051-0.148c-0.075-0.181-0.195-0.325-0.36-0.432s-0.353-0.16-0.56-0.16c-0.209,0-0.396,0.054-0.561,0.16
		c-0.166,0.106-0.285,0.251-0.359,0.432c-0.043,0.107-0.072,0.203-0.089,0.288c-0.016,0.086-0.026,0.208-0.032,0.368h2.08
		C650.682,509.079,650.677,509.01,650.671,508.951z"/>
	<path d="M655.007,511.407v-2.424c0-0.353-0.087-0.615-0.26-0.788c-0.174-0.173-0.41-0.26-0.709-0.26s-0.535,0.088-0.711,0.264
		c-0.177,0.176-0.265,0.438-0.265,0.784v2.424h-0.575v-3.936h0.575v0.432c0.139-0.16,0.302-0.28,0.488-0.36s0.392-0.12,0.616-0.12
		c0.426,0,0.762,0.123,1.008,0.368c0.271,0.267,0.408,0.632,0.408,1.097v2.52H655.007z"/>
	<path d="M657.343,509.591c0,0.43,0.099,0.763,0.296,0.998c0.197,0.236,0.485,0.354,0.864,0.354c0.229,0,0.42-0.036,0.572-0.108
		c0.151-0.071,0.305-0.185,0.459-0.34l0.393,0.344c-0.102,0.103-0.201,0.191-0.301,0.267c-0.098,0.076-0.203,0.14-0.315,0.191
		s-0.235,0.091-0.372,0.118c-0.136,0.026-0.287,0.04-0.451,0.04c-0.262,0-0.498-0.04-0.709-0.12s-0.391-0.202-0.539-0.368
		c-0.15-0.165-0.266-0.374-0.349-0.628c-0.083-0.253-0.124-0.553-0.124-0.899c0-0.641,0.145-1.136,0.432-1.488
		c0.289-0.352,0.684-0.528,1.185-0.528c0.512,0,0.909,0.171,1.192,0.513c0.282,0.341,0.424,0.805,0.424,1.392v0.264H657.343z
		 M659.407,508.951c-0.006-0.059-0.013-0.112-0.021-0.16s-0.019-0.095-0.032-0.14s-0.031-0.095-0.052-0.148
		c-0.075-0.181-0.194-0.325-0.36-0.432c-0.165-0.106-0.352-0.16-0.56-0.16s-0.396,0.054-0.56,0.16
		c-0.166,0.106-0.286,0.251-0.36,0.432c-0.043,0.107-0.072,0.203-0.089,0.288c-0.016,0.086-0.025,0.208-0.031,0.368h2.08
		C659.417,509.079,659.412,509.01,659.407,508.951z"/>
	<path d="M663.423,508.223c-0.107-0.107-0.209-0.182-0.305-0.225c-0.096-0.042-0.221-0.063-0.375-0.063
		c-0.145,0-0.275,0.026-0.393,0.08c-0.117,0.053-0.217,0.128-0.297,0.224c-0.079,0.096-0.143,0.208-0.188,0.336
		s-0.068,0.267-0.068,0.416v2.416h-0.575v-3.936h0.575v0.479c0.107-0.165,0.261-0.295,0.461-0.388
		c0.199-0.094,0.414-0.141,0.644-0.141c0.187,0,0.356,0.027,0.509,0.08c0.151,0.054,0.297,0.149,0.436,0.288L663.423,508.223z"/>
	<path d="M666.743,511.407v-0.376c-0.16,0.16-0.324,0.271-0.492,0.332s-0.383,0.092-0.645,0.092c-0.271,0-0.494-0.028-0.668-0.084
		s-0.321-0.147-0.443-0.275c-0.097-0.097-0.17-0.215-0.221-0.356s-0.076-0.289-0.076-0.444c0-0.347,0.116-0.622,0.348-0.828
		c0.232-0.205,0.57-0.308,1.013-0.308h1.185v-0.376c0-0.288-0.078-0.504-0.232-0.648c-0.154-0.144-0.414-0.216-0.776-0.216
		c-0.256,0-0.456,0.033-0.6,0.101c-0.144,0.066-0.274,0.183-0.392,0.348l-0.393-0.36c0.176-0.229,0.372-0.384,0.588-0.464
		s0.484-0.12,0.805-0.12c0.533,0,0.929,0.111,1.188,0.332c0.258,0.222,0.388,0.549,0.388,0.98v2.672H666.743z M666.743,509.591
		h-1.104c-0.587,0-0.88,0.232-0.88,0.696c0,0.229,0.072,0.398,0.216,0.508s0.373,0.164,0.688,0.164c0.17,0,0.328-0.013,0.476-0.04
		c0.146-0.026,0.281-0.101,0.403-0.224c0.134-0.128,0.201-0.354,0.201-0.68V509.591z"/>
	<path d="M669.823,511.407c-0.172,0-0.319-0.028-0.445-0.084c-0.125-0.056-0.229-0.132-0.312-0.228
		c-0.083-0.097-0.146-0.208-0.188-0.337c-0.042-0.128-0.063-0.264-0.063-0.407v-2.416h-0.496v-0.44h0.496v-1.231h0.576v1.231h0.84
		v0.44h-0.84v2.399c0,0.182,0.042,0.323,0.128,0.424c0.086,0.102,0.221,0.152,0.408,0.152h0.304v0.496H669.823z"/>
	<path d="M671.671,509.591c0,0.43,0.098,0.763,0.295,0.998c0.197,0.236,0.486,0.354,0.865,0.354c0.229,0,0.42-0.036,0.571-0.108
		c0.151-0.071,0.306-0.185,0.46-0.34l0.393,0.344c-0.102,0.103-0.202,0.191-0.301,0.267c-0.099,0.076-0.203,0.14-0.316,0.191
		c-0.111,0.052-0.235,0.091-0.371,0.118c-0.137,0.026-0.287,0.04-0.452,0.04c-0.262,0-0.497-0.04-0.708-0.12
		s-0.391-0.202-0.54-0.368c-0.149-0.165-0.266-0.374-0.349-0.628c-0.082-0.253-0.123-0.553-0.123-0.899
		c0-0.641,0.144-1.136,0.432-1.488c0.288-0.352,0.683-0.528,1.184-0.528c0.512,0,0.91,0.171,1.192,0.513
		c0.282,0.341,0.424,0.805,0.424,1.392v0.264H671.671z M673.735,508.951c-0.005-0.059-0.013-0.112-0.021-0.16
		s-0.018-0.095-0.031-0.14s-0.031-0.095-0.053-0.148c-0.074-0.181-0.194-0.325-0.359-0.432c-0.166-0.106-0.352-0.16-0.561-0.16
		c-0.207,0-0.395,0.054-0.56,0.16s-0.286,0.251-0.36,0.432c-0.043,0.107-0.072,0.203-0.088,0.288
		c-0.016,0.086-0.026,0.208-0.031,0.368h2.08C673.745,509.079,673.74,509.01,673.735,508.951z"/>
	<path d="M677.895,511.407v-0.472c-0.159,0.208-0.331,0.347-0.515,0.416s-0.384,0.104-0.602,0.104c-0.202,0-0.386-0.03-0.551-0.092
		c-0.164-0.062-0.301-0.146-0.406-0.252c-0.102-0.102-0.182-0.216-0.244-0.344c-0.061-0.128-0.108-0.266-0.143-0.412
		c-0.035-0.146-0.059-0.298-0.072-0.452s-0.02-0.31-0.02-0.464c0-0.155,0.006-0.31,0.02-0.464c0.014-0.155,0.037-0.306,0.072-0.452
		s0.082-0.284,0.145-0.412c0.061-0.128,0.143-0.243,0.244-0.344c0.105-0.107,0.242-0.191,0.407-0.252
		c0.165-0.062,0.349-0.093,0.552-0.093c0.219,0,0.419,0.034,0.6,0.101c0.182,0.066,0.353,0.201,0.513,0.403l-0.008-2.216h0.584
		v5.696H677.895z M677.855,508.879c-0.021-0.181-0.066-0.341-0.135-0.479c-0.069-0.139-0.169-0.251-0.299-0.336
		c-0.131-0.086-0.302-0.128-0.514-0.128c-0.213,0-0.385,0.042-0.515,0.128c-0.13,0.085-0.229,0.197-0.299,0.336
		s-0.115,0.299-0.14,0.479c-0.023,0.182-0.035,0.368-0.035,0.561c0,0.191,0.012,0.379,0.035,0.56c0.024,0.182,0.07,0.342,0.14,0.48
		s0.169,0.25,0.299,0.336c0.13,0.085,0.302,0.128,0.515,0.128c0.212,0,0.383-0.043,0.514-0.128c0.13-0.086,0.229-0.197,0.299-0.336
		c0.068-0.139,0.113-0.299,0.135-0.48c0.021-0.181,0.032-0.368,0.032-0.56C677.887,509.247,677.876,509.06,677.855,508.879z"/>
	<path d="M685.011,509.903c-0.014,0.154-0.038,0.306-0.072,0.452c-0.035,0.146-0.083,0.284-0.145,0.412
		c-0.061,0.128-0.143,0.242-0.244,0.344c-0.106,0.106-0.242,0.19-0.408,0.252c-0.165,0.062-0.349,0.092-0.551,0.092
		c-0.219,0-0.42-0.034-0.601-0.104c-0.182-0.069-0.353-0.208-0.513-0.416v0.472h-0.575v-5.696h0.575v2.216
		c0.16-0.202,0.331-0.337,0.513-0.403c0.181-0.066,0.382-0.101,0.601-0.101c0.202,0,0.386,0.031,0.551,0.093
		c0.166,0.061,0.302,0.145,0.408,0.252c0.102,0.101,0.184,0.216,0.244,0.344c0.062,0.128,0.109,0.266,0.145,0.412
		c0.034,0.146,0.059,0.297,0.072,0.452c0.013,0.154,0.02,0.309,0.02,0.464C685.031,509.594,685.024,509.749,685.011,509.903z
		 M684.423,508.879c-0.021-0.181-0.067-0.341-0.137-0.479s-0.17-0.251-0.3-0.336c-0.131-0.086-0.303-0.128-0.517-0.128
		c-0.213,0-0.385,0.042-0.516,0.128c-0.131,0.085-0.23,0.197-0.3,0.336s-0.116,0.299-0.14,0.479
		c-0.024,0.182-0.037,0.368-0.037,0.561c0,0.191,0.013,0.379,0.037,0.56c0.023,0.182,0.07,0.342,0.14,0.48s0.169,0.25,0.3,0.336
		c0.131,0.085,0.303,0.128,0.516,0.128c0.214,0,0.386-0.043,0.517-0.128c0.13-0.086,0.23-0.197,0.3-0.336s0.115-0.299,0.137-0.48
		c0.021-0.181,0.031-0.368,0.031-0.56C684.454,509.247,684.444,509.06,684.423,508.879z"/>
	<path d="M687.239,512.359c-0.075,0.208-0.168,0.362-0.28,0.464c-0.106,0.102-0.227,0.172-0.359,0.212s-0.27,0.061-0.408,0.061
		h-0.248v-0.513h0.176c0.197,0,0.339-0.036,0.424-0.107c0.086-0.072,0.16-0.199,0.225-0.38l0.279-0.769l-1.416-3.855h0.625
		l1.08,3.159l1.071-3.159h0.624L687.239,512.359z"/>
	<path d="M695.882,509.119c-0.003,0.219-0.02,0.434-0.052,0.645c-0.032,0.21-0.087,0.411-0.164,0.604s-0.19,0.362-0.341,0.512
		c-0.17,0.171-0.378,0.302-0.623,0.393c-0.246,0.091-0.518,0.136-0.816,0.136h-1.951v-5.696h1.951c0.299,0,0.57,0.046,0.816,0.137
		c0.245,0.09,0.453,0.221,0.623,0.392c0.15,0.149,0.264,0.313,0.341,0.492s0.132,0.365,0.164,0.56
		c0.032,0.195,0.049,0.395,0.052,0.601c0.002,0.205,0.004,0.406,0.004,0.604S695.884,508.9,695.882,509.119z M695.275,507.971
		c-0.004-0.174-0.016-0.339-0.037-0.496s-0.059-0.306-0.111-0.444c-0.054-0.139-0.128-0.259-0.225-0.36
		c-0.148-0.154-0.316-0.263-0.504-0.323c-0.187-0.062-0.392-0.093-0.615-0.093h-1.24v4.608h1.24c0.224,0,0.429-0.03,0.615-0.092
		c0.188-0.062,0.355-0.17,0.504-0.324c0.097-0.102,0.171-0.229,0.225-0.38c0.053-0.152,0.09-0.314,0.111-0.488
		c0.021-0.173,0.033-0.354,0.037-0.54c0.002-0.187,0.004-0.368,0.004-0.544S695.277,508.144,695.275,507.971z"/>
	<path d="M697.319,511.407v-5.696h0.608v5.696H697.319z"/>
	<path d="M701.118,509.055v2.352h-0.608v-2.352l-1.696-3.345h0.656l1.344,2.729l1.328-2.729h0.656L701.118,509.055z"/>
	<path d="M707.806,511.407v-0.376c-0.16,0.16-0.324,0.271-0.492,0.332s-0.383,0.092-0.644,0.092c-0.272,0-0.495-0.028-0.668-0.084
		s-0.321-0.147-0.444-0.275c-0.096-0.097-0.169-0.215-0.22-0.356s-0.075-0.289-0.075-0.444c0-0.347,0.115-0.622,0.348-0.828
		c0.231-0.205,0.568-0.308,1.012-0.308h1.184v-0.376c0-0.288-0.077-0.504-0.231-0.648c-0.155-0.144-0.413-0.216-0.776-0.216
		c-0.256,0-0.456,0.033-0.6,0.101c-0.145,0.066-0.275,0.183-0.393,0.348l-0.392-0.36c0.176-0.229,0.372-0.384,0.588-0.464
		s0.483-0.12,0.804-0.12c0.533,0,0.93,0.111,1.188,0.332c0.259,0.222,0.388,0.549,0.388,0.98v2.672H707.806z M707.806,509.591
		h-1.104c-0.587,0-0.881,0.232-0.881,0.696c0,0.229,0.072,0.398,0.217,0.508s0.373,0.164,0.688,0.164c0.171,0,0.33-0.013,0.477-0.04
		c0.146-0.026,0.281-0.101,0.404-0.224c0.133-0.128,0.199-0.354,0.199-0.68V509.591z"/>
	<path d="M712.89,509.903c-0.014,0.154-0.037,0.306-0.072,0.452c-0.034,0.146-0.082,0.284-0.144,0.412s-0.143,0.242-0.243,0.344
		c-0.107,0.106-0.243,0.19-0.408,0.252c-0.166,0.062-0.35,0.092-0.553,0.092c-0.219,0-0.418-0.034-0.6-0.104
		s-0.352-0.206-0.512-0.408v2.224h-0.576v-5.695h0.576v0.464c0.16-0.208,0.33-0.346,0.512-0.412s0.381-0.101,0.6-0.101
		c0.203,0,0.387,0.031,0.553,0.093c0.165,0.061,0.301,0.145,0.408,0.252c0.101,0.101,0.182,0.216,0.243,0.344
		s0.109,0.266,0.144,0.412c0.035,0.146,0.059,0.297,0.072,0.452c0.014,0.154,0.021,0.309,0.021,0.464
		C712.91,509.594,712.904,509.749,712.89,509.903z M712.302,508.879c-0.021-0.181-0.066-0.341-0.136-0.479s-0.169-0.251-0.3-0.336
		c-0.131-0.086-0.303-0.128-0.516-0.128c-0.214,0-0.386,0.042-0.517,0.128c-0.131,0.085-0.231,0.197-0.3,0.336
		c-0.069,0.139-0.116,0.299-0.141,0.479c-0.023,0.182-0.035,0.368-0.035,0.561c0,0.191,0.012,0.379,0.035,0.56
		c0.024,0.182,0.071,0.342,0.141,0.48c0.068,0.139,0.169,0.25,0.3,0.336c0.131,0.085,0.303,0.128,0.517,0.128
		c0.213,0,0.385-0.043,0.516-0.128c0.131-0.086,0.23-0.197,0.3-0.336s0.114-0.299,0.136-0.48c0.021-0.181,0.032-0.368,0.032-0.56
		C712.334,509.247,712.323,509.06,712.302,508.879z"/>
	<path d="M717.25,509.903c-0.014,0.154-0.038,0.306-0.072,0.452s-0.083,0.284-0.144,0.412c-0.062,0.128-0.143,0.242-0.244,0.344
		c-0.107,0.106-0.242,0.19-0.408,0.252s-0.35,0.092-0.552,0.092c-0.219,0-0.419-0.034-0.601-0.104s-0.352-0.206-0.512-0.408v2.224
		h-0.576v-5.695h0.576v0.464c0.16-0.208,0.33-0.346,0.512-0.412s0.382-0.101,0.601-0.101c0.202,0,0.386,0.031,0.552,0.093
		c0.166,0.061,0.301,0.145,0.408,0.252c0.102,0.101,0.183,0.216,0.244,0.344c0.061,0.128,0.109,0.266,0.144,0.412
		s0.059,0.297,0.072,0.452c0.013,0.154,0.021,0.309,0.021,0.464C717.271,509.594,717.263,509.749,717.25,509.903z M716.662,508.879
		c-0.021-0.181-0.067-0.341-0.136-0.479c-0.07-0.139-0.17-0.251-0.301-0.336c-0.131-0.086-0.303-0.128-0.516-0.128
		s-0.385,0.042-0.516,0.128c-0.131,0.085-0.231,0.197-0.301,0.336c-0.068,0.139-0.115,0.299-0.14,0.479
		c-0.024,0.182-0.036,0.368-0.036,0.561c0,0.191,0.012,0.379,0.036,0.56c0.024,0.182,0.071,0.342,0.14,0.48
		c0.069,0.139,0.17,0.25,0.301,0.336c0.131,0.085,0.303,0.128,0.516,0.128s0.385-0.043,0.516-0.128
		c0.131-0.086,0.23-0.197,0.301-0.336c0.068-0.139,0.114-0.299,0.136-0.48c0.021-0.181,0.032-0.368,0.032-0.56
		C716.695,509.247,716.683,509.06,716.662,508.879z"/>
	<path d="M723.603,509.903c-0.014,0.154-0.038,0.306-0.072,0.452c-0.035,0.146-0.083,0.284-0.145,0.412
		c-0.061,0.128-0.143,0.242-0.244,0.344c-0.106,0.106-0.242,0.19-0.408,0.252c-0.165,0.062-0.349,0.092-0.551,0.092
		c-0.219,0-0.42-0.034-0.601-0.104c-0.182-0.069-0.353-0.208-0.513-0.416v0.472h-0.575v-5.696h0.575v2.216
		c0.16-0.202,0.331-0.337,0.513-0.403c0.181-0.066,0.382-0.101,0.601-0.101c0.202,0,0.386,0.031,0.551,0.093
		c0.166,0.061,0.302,0.145,0.408,0.252c0.102,0.101,0.184,0.216,0.244,0.344c0.062,0.128,0.109,0.266,0.145,0.412
		c0.034,0.146,0.059,0.297,0.072,0.452c0.013,0.154,0.02,0.309,0.02,0.464C723.622,509.594,723.615,509.749,723.603,509.903z
		 M723.015,508.879c-0.021-0.181-0.067-0.341-0.137-0.479s-0.17-0.251-0.3-0.336c-0.131-0.086-0.303-0.128-0.517-0.128
		c-0.213,0-0.385,0.042-0.516,0.128c-0.131,0.085-0.23,0.197-0.3,0.336s-0.116,0.299-0.14,0.479
		c-0.024,0.182-0.037,0.368-0.037,0.561c0,0.191,0.013,0.379,0.037,0.56c0.023,0.182,0.07,0.342,0.14,0.48s0.169,0.25,0.3,0.336
		c0.131,0.085,0.303,0.128,0.516,0.128c0.214,0,0.386-0.043,0.517-0.128c0.13-0.086,0.23-0.197,0.3-0.336s0.115-0.299,0.137-0.48
		c0.021-0.181,0.031-0.368,0.031-0.56C723.046,509.247,723.035,509.06,723.015,508.879z"/>
	<path d="M725.214,509.591c0,0.43,0.099,0.763,0.296,0.998c0.197,0.236,0.485,0.354,0.864,0.354c0.229,0,0.42-0.036,0.572-0.108
		c0.151-0.071,0.305-0.185,0.459-0.34l0.393,0.344c-0.102,0.103-0.201,0.191-0.301,0.267c-0.098,0.076-0.203,0.14-0.315,0.191
		s-0.235,0.091-0.372,0.118c-0.136,0.026-0.287,0.04-0.451,0.04c-0.262,0-0.498-0.04-0.709-0.12s-0.391-0.202-0.539-0.368
		c-0.15-0.165-0.266-0.374-0.349-0.628c-0.083-0.253-0.124-0.553-0.124-0.899c0-0.641,0.145-1.136,0.432-1.488
		c0.289-0.352,0.684-0.528,1.185-0.528c0.512,0,0.909,0.171,1.192,0.513c0.282,0.341,0.424,0.805,0.424,1.392v0.264H725.214z
		 M727.279,508.951c-0.006-0.059-0.013-0.112-0.021-0.16s-0.019-0.095-0.032-0.14s-0.031-0.095-0.052-0.148
		c-0.075-0.181-0.194-0.325-0.36-0.432c-0.165-0.106-0.352-0.16-0.56-0.16s-0.396,0.054-0.56,0.16
		c-0.166,0.106-0.286,0.251-0.36,0.432c-0.043,0.107-0.072,0.203-0.089,0.288c-0.016,0.086-0.025,0.208-0.031,0.368h2.08
		C727.288,509.079,727.283,509.01,727.279,508.951z"/>
	<path d="M730.198,511.407c-0.172,0-0.319-0.028-0.445-0.084c-0.125-0.056-0.229-0.132-0.312-0.228
		c-0.083-0.097-0.146-0.208-0.188-0.337c-0.042-0.128-0.063-0.264-0.063-0.407v-2.416h-0.496v-0.44h0.496v-1.231h0.576v1.231h0.84
		v0.44h-0.84v2.399c0,0.182,0.042,0.323,0.128,0.424c0.086,0.102,0.221,0.152,0.408,0.152h0.304v0.496H730.198z"/>
	<path d="M733.917,511.407v-0.376c-0.16,0.16-0.324,0.271-0.492,0.332s-0.383,0.092-0.644,0.092c-0.272,0-0.495-0.028-0.668-0.084
		s-0.321-0.147-0.444-0.275c-0.096-0.097-0.169-0.215-0.22-0.356s-0.075-0.289-0.075-0.444c0-0.347,0.115-0.622,0.348-0.828
		c0.231-0.205,0.568-0.308,1.012-0.308h1.184v-0.376c0-0.288-0.077-0.504-0.231-0.648c-0.155-0.144-0.413-0.216-0.776-0.216
		c-0.256,0-0.456,0.033-0.6,0.101c-0.145,0.066-0.275,0.183-0.393,0.348l-0.392-0.36c0.176-0.229,0.372-0.384,0.588-0.464
		s0.483-0.12,0.804-0.12c0.533,0,0.93,0.111,1.188,0.332c0.259,0.222,0.388,0.549,0.388,0.98v2.672H733.917z M733.917,509.591
		h-1.104c-0.587,0-0.881,0.232-0.881,0.696c0,0.229,0.072,0.398,0.217,0.508s0.373,0.164,0.688,0.164c0.171,0,0.33-0.013,0.477-0.04
		c0.146-0.026,0.281-0.101,0.404-0.224c0.133-0.128,0.199-0.354,0.199-0.68V509.591z"/>
</g>
</svg>
